<svg xmlns="http://www.w3.org/2000/svg" xmlns:xlink="http://www.w3.org/1999/xlink" xml:space="preserve" width="176.315mm" height="44.698mm" style="shape-rendering:geometricPrecision; text-rendering:geometricPrecision; image-rendering:optimizeQuality; fill-rule:evenodd; clip-rule:evenodd" viewBox="0 0 66216 16787">
 <defs>
  <style type="text/css">
   <![CDATA[
    .fil0 {fill:white}
    .fil1 {fill:#4CB9CA;fill-rule:nonzero}
    .fil2 {fill:white;fill-rule:nonzero}
    .fil3 {fill:white;fill-rule:nonzero}
   ]]>
  </style>
 </defs>
 <g id="Capa_x0020_1">
  <metadata id="CorelCorpID_0Corel-Layer"></metadata>
  <g id="_2078352827664">
   <path class="fil0" d="M8130 6305c1005,-428 1635,940 768,1371 -1013,504 -1875,-900 -768,-1371z"></path>
   <path class="fil0" d="M1 11762c-47,-337 2132,-5149 3325,-3920 330,340 315,1647 370,2202 686,-311 1101,-1552 2296,-1312 387,191 1051,2263 963,2589 -18,66 -1061,1488 -1863,-789 -577,290 -806,1180 -1571,1236 -1049,77 -1134,-595 -1296,-1424 -17,14 -38,34 -49,44l-244 276c-501,694 -855,1902 -1931,1100z"></path>
   <path class="fil0" d="M7919 8249c217,-190 1412,-537 1459,1121 114,4057 -1462,2641 -1626,1365 -82,-636 -282,-2094 167,-2486z"></path>
  </g>
  <path class="fil0" d="M12913 0c-1259,560 -2113,5320 -2458,7043 -2493,12452 10235,10747 15210,6997 3884,-2928 5578,-10906 -220,-11700 -2064,-282 -5840,1089 -7813,1645 -1656,467 -2678,853 -3475,-585 -850,-1532 -390,-2886 -1243,-3401z"></path>
  <path class="fil1" d="M11216 6945c0,-63 21,-117 63,-158 41,-41 93,-62 155,-62l799 0c62,0 115,21 156,62 41,41 62,95 62,158l0 1096c385,-122 730,-183 1032,-183 585,0 1050,175 1395,524 345,348 518,850 518,1507 0,1350 -755,2025 -2266,2025 -345,0 -703,-39 -1073,-117 -369,-77 -649,-172 -841,-284l0 -4568zm1235 1921l0 2105c205,55 465,83 782,83 316,0 543,-93 683,-275 139,-183 208,-480 208,-889 0,-409 -68,-705 -205,-890 -138,-184 -369,-277 -694,-277 -210,0 -468,48 -775,144z"></path>
  <path id="1" class="fil1" d="M16056 7185l0 -122c0,-125 37,-225 110,-300 72,-74 173,-111 301,-111l443 0c125,0 225,37 300,110 73,72 110,173 110,301l0 122c0,125 -35,225 -108,300 -72,73 -173,111 -301,111l-443 0c-125,0 -225,-38 -300,-111 -73,-74 -111,-174 -111,-300zm15 4439l0 -3387c0,-65 21,-117 62,-157 43,-40 94,-61 156,-61l799 0c65,0 117,21 157,63 40,41 61,93 61,155l0 3387c0,65 -21,117 -63,157 -41,40 -93,61 -155,61l-799 0c-65,0 -117,-21 -157,-61 -40,-40 -61,-93 -61,-157z"></path>
  <path id="2" class="fil1" d="M20061 11067l488 -43 132 0c65,0 118,21 160,61 41,40 62,93 62,157l0 381c0,52 -21,100 -62,141 -41,41 -95,67 -160,77 -242,48 -559,72 -949,72 -1023,0 -1535,-536 -1535,-1607l0 -3362c0,-63 21,-117 63,-158 41,-41 93,-62 155,-62l799 0c62,0 115,21 156,62 41,41 62,95 62,158l0 1193 995 0c62,0 115,21 156,61 41,40 62,93 62,157l0 424c0,65 -21,117 -62,157 -41,40 -94,61 -156,61l-995 0 0 1310c0,242 57,430 172,563 113,132 266,197 457,197z"></path>
  <path id="3" class="fil1" d="M21781 11393c-367,-347 -549,-848 -549,-1501 0,-653 184,-1155 553,-1506 369,-351 880,-527 1535,-527 654,0 1165,172 1530,513 367,341 551,831 551,1468l0 203c0,65 -22,118 -63,160 -41,41 -94,62 -158,62l-2687 0c23,292 107,506 251,638 145,134 375,201 691,201 317,0 534,-72 650,-214 116,-143 259,-216 431,-218l532 0c63,0 117,21 158,62 41,43 62,95 62,160 0,682 -650,1023 -1952,1021 -657,0 -1168,-174 -1535,-521zm703 -1881l1659 0c-23,-562 -298,-842 -826,-842 -526,0 -805,280 -833,842z"></path>
  <path id="4" class="fil1" d="M26056 11624l0 -4679c0,-63 21,-117 63,-158 41,-41 93,-62 155,-62l799 0c62,0 115,21 156,62 41,41 62,95 62,158l0 4679c0,62 -21,115 -62,156 -41,41 -94,62 -156,62l-799 0c-62,0 -113,-21 -155,-62 -43,-41 -63,-94 -63,-156z"></path>
  <path class="fil2" d="M29681 11400c-372,-344 -557,-848 -557,-1515 0,-668 185,-1172 557,-1513 370,-341 904,-513 1601,-513 696,0 1229,172 1601,513 370,341 557,845 557,1513 0,668 -186,1172 -557,1515 -372,342 -905,514 -1601,514 -697,0 -1230,-172 -1601,-514zm903 -2441c-147,192 -222,501 -222,925 0,423 74,732 222,927 147,195 380,294 698,294 317,0 551,-99 699,-294 149,-195 223,-504 223,-927 0,-424 -74,-732 -223,-925 -149,-192 -383,-289 -699,-289 -318,0 -551,96 -698,289z"></path>
  <path id="1" class="fil2" d="M34094 11624l0 -3472c0,-65 21,-117 63,-160 41,-41 93,-62 155,-62l799 0c62,0 115,21 156,62 41,43 62,95 62,160l0 224c409,-345 845,-518 1308,-518 463,0 839,141 1129,424 290,281 435,713 435,1294l0 2048c0,62 -21,115 -62,156 -41,41 -94,62 -158,62l-797 0c-61,0 -113,-21 -155,-62 -41,-41 -62,-94 -62,-156l0 -2048c0,-569 -228,-854 -682,-854 -297,0 -616,171 -956,510l0 2391c0,62 -21,115 -62,156 -41,41 -94,62 -156,62l-799 0c-62,0 -113,-21 -155,-62 -43,-41 -63,-94 -63,-156z"></path>
  <path id="2" class="fil2" d="M39080 11624l0 -4679c0,-63 21,-117 63,-158 41,-41 93,-62 155,-62l799 0c62,0 115,21 156,62 41,41 62,95 62,158l0 4679c0,62 -21,115 -62,156 -41,41 -94,62 -156,62l-799 0c-62,0 -113,-21 -155,-62 -43,-41 -63,-94 -63,-156z"></path>
  <path id="3" class="fil2" d="M41192 7185l0 -122c0,-125 37,-225 110,-300 72,-74 173,-111 301,-111l443 0c125,0 225,37 300,110 73,72 110,173 110,301l0 122c0,125 -35,225 -108,300 -72,73 -173,111 -301,111l-443 0c-125,0 -225,-38 -300,-111 -73,-74 -111,-174 -111,-300zm15 4439l0 -3387c0,-65 21,-117 62,-157 43,-40 94,-61 156,-61l799 0c65,0 117,21 157,63 40,41 61,93 61,155l0 3387c0,65 -21,117 -63,157 -41,40 -93,61 -155,61l-799 0c-65,0 -117,-21 -157,-61 -40,-40 -61,-93 -61,-157z"></path>
  <path id="4" class="fil2" d="M43334 11624l0 -3472c0,-65 21,-117 63,-160 41,-41 93,-62 155,-62l799 0c62,0 115,21 156,62 41,43 62,95 62,160l0 224c409,-345 845,-518 1308,-518 463,0 839,141 1129,424 290,281 435,713 435,1294l0 2048c0,62 -21,115 -62,156 -41,41 -94,62 -158,62l-797 0c-61,0 -113,-21 -155,-62 -41,-41 -62,-94 -62,-156l0 -2048c0,-569 -228,-854 -682,-854 -297,0 -616,171 -956,510l0 2391c0,62 -21,115 -62,156 -41,41 -94,62 -156,62l-799 0c-62,0 -113,-21 -155,-62 -43,-41 -63,-94 -63,-156z"></path>
  <path id="5" class="fil2" d="M48649 11393c-367,-347 -549,-848 -549,-1501 0,-653 184,-1155 553,-1506 369,-351 880,-527 1535,-527 654,0 1165,172 1530,513 367,341 551,831 551,1468l0 203c0,65 -22,118 -63,160 -41,41 -94,62 -158,62l-2687 0c23,292 107,506 251,638 145,134 375,201 691,201 317,0 534,-72 650,-214 116,-143 259,-216 431,-218l532 0c63,0 117,21 158,62 41,43 62,95 62,160 0,682 -650,1023 -1952,1021 -657,0 -1168,-174 -1535,-521zm703 -1881l1659 0c-23,-562 -298,-842 -826,-842 -526,0 -805,280 -833,842z"></path>
  <path id="6" class="fil2" d="M53698 10686c322,0 482,162 482,485l0 225c0,150 -41,267 -123,353 -83,85 -202,128 -359,128l-439 0c-157,0 -277,-43 -359,-128 -82,-86 -123,-203 -123,-353l0 -225c0,-157 41,-277 125,-361 83,-83 202,-124 357,-124l439 0z"></path>
  <path id="7" class="fil2" d="M56165 11894c-484,0 -861,-125 -1130,-373 -269,-249 -404,-614 -404,-1096 0,-482 133,-848 401,-1097 268,-249 639,-374 1116,-374 477,0 843,76 1100,228 256,152 384,376 384,673 0,47 -15,85 -45,114 -30,29 -69,44 -115,44l-386 0c-117,0 -216,-64 -298,-189 -102,-163 -282,-244 -540,-244 -258,0 -438,66 -541,199 -102,132 -154,347 -154,646 0,298 53,514 159,647 106,132 291,200 554,200 263,0 445,-81 547,-244 81,-127 180,-192 298,-192l386 0c47,0 85,15 115,46 30,30 45,67 45,112 0,297 -128,521 -384,673 -256,152 -626,228 -1109,228z"></path>
  <path id="8" class="fil2" d="M58327 11522c-269,-249 -404,-615 -404,-1099 0,-484 134,-850 404,-1097 268,-247 655,-372 1161,-372 504,0 891,125 1161,372 269,247 404,613 404,1097 0,484 -135,850 -404,1099 -269,248 -656,373 -1161,373 -505,0 -892,-125 -1161,-373zm654 -1770c-107,140 -161,363 -161,670 0,306 54,531 161,672 107,141 276,213 506,213 230,0 399,-72 507,-213 108,-141 162,-366 162,-672 0,-307 -54,-531 -162,-670 -108,-140 -277,-209 -507,-209 -231,0 -399,70 -506,209z"></path>
  <path id="9" class="fil2" d="M61527 11684l0 -2517c0,-47 15,-85 46,-116 30,-30 67,-45 112,-45l579 0c47,0 85,15 114,45 29,31 44,69 44,116l0 163c125,-120 246,-213 367,-278 119,-64 264,-97 433,-97 402,0 707,166 914,497 321,-333 649,-499 987,-498 337,1 604,102 799,306 196,202 294,516 294,941l0 1485c0,47 -15,85 -44,114 -29,29 -67,44 -114,44l-577 0c-47,0 -85,-15 -115,-45 -31,-30 -46,-68 -46,-113l0 -1485c0,-414 -150,-621 -450,-619 -184,0 -372,132 -567,397 11,74 16,148 16,223l0 1485c0,47 -16,85 -46,114 -30,29 -67,44 -112,44l-577 0c-47,0 -86,-15 -116,-45 -30,-30 -45,-68 -45,-113l0 -1485c0,-414 -150,-621 -450,-619 -192,0 -375,124 -551,370l0 1734c0,47 -15,85 -45,114 -30,29 -68,44 -113,44l-579 0c-47,0 -85,-15 -114,-44 -29,-29 -44,-67 -44,-114z"></path>
  <path class="fil3" d="M29444 15507l0 -1396c0,-31 11,-57 35,-77 23,-21 51,-31 83,-31l693 0c359,0 619,65 783,194 163,130 245,333 245,610 0,277 -82,480 -245,609 -163,129 -424,194 -783,194l-693 0c-32,0 -60,-10 -83,-30 -23,-20 -35,-44 -35,-73zm467 -214l330 0c222,0 373,-37 453,-110 80,-73 120,-199 120,-376 0,-178 -40,-303 -120,-377 -80,-73 -231,-110 -453,-110l-330 0 0 973z"></path>
  <path id="1" class="fil3" d="M31511 14147l0 -38c0,-39 13,-71 38,-94 25,-23 60,-35 104,-35l154 0c44,0 78,11 104,34 25,23 38,54 38,95l0 38c0,39 -12,71 -38,94 -25,23 -60,35 -104,35l-154 0c-44,0 -78,-12 -104,-35 -25,-23 -38,-55 -38,-94zm5 1395l0 -1064c0,-20 7,-37 22,-49 15,-13 33,-19 54,-19l277 0c22,0 41,6 55,20 14,13 21,29 21,49l0 1064c0,20 -7,37 -22,49 -14,13 -32,19 -54,19l-277 0c-22,0 -41,-6 -55,-19 -14,-13 -21,-29 -21,-49z"></path>
  <path id="2" class="fil3" d="M32178 14721c0,-241 215,-362 645,-362 453,0 679,108 679,322 0,20 -7,36 -21,49 -14,13 -32,20 -55,20l-185 0c-59,0 -109,-23 -150,-68 -41,-45 -120,-68 -239,-68 -163,0 -245,36 -245,108 0,34 32,62 96,84 64,23 142,42 234,59 92,17 184,38 276,65 92,26 170,68 233,125 64,57 96,130 96,217 0,241 -227,362 -681,362 -454,0 -681,-107 -681,-321 0,-20 7,-37 22,-50 14,-13 33,-19 55,-19l185 0c59,0 110,23 150,68 41,45 120,68 239,68 189,0 284,-36 284,-108 0,-34 -32,-62 -96,-84 -64,-23 -143,-42 -235,-60 -92,-18 -184,-39 -276,-65 -91,-26 -169,-67 -233,-125 -64,-57 -96,-129 -96,-215z"></path>
  <path id="3" class="fil3" d="M34420 15367l170 -13 46 0c22,0 41,6 55,19 14,13 22,29 22,49l0 120c0,16 -7,31 -22,44 -14,13 -33,21 -55,24 -84,15 -194,23 -330,23 -355,0 -533,-168 -533,-505l0 -1056c0,-20 7,-37 22,-50 14,-13 32,-20 54,-20l277 0c22,0 40,6 54,20 14,13 22,30 22,50l0 375 346 0c22,0 40,6 54,19 14,13 22,29 22,49l0 133c0,20 -7,37 -22,49 -14,13 -33,19 -54,19l-346 0 0 411c0,76 20,135 60,177 39,41 92,62 159,62z"></path>
  <path id="4" class="fil3" d="M35854 14666l-191 -7c-112,0 -218,55 -320,166l0 716c0,20 -7,37 -22,49 -14,13 -33,19 -54,19l-277 0c-22,0 -41,-6 -55,-19 -14,-13 -21,-29 -21,-49l0 -1091c0,-20 7,-37 22,-50 14,-13 32,-19 54,-19l277 0c22,0 41,6 55,19 14,13 21,30 21,50l0 70c84,-55 165,-96 244,-123 78,-26 180,-40 307,-40 22,0 41,7 55,20 14,13 22,29 22,49l0 170c0,20 -7,37 -22,49 -14,13 -33,19 -55,19l-40 0z"></path>
  <path id="5" class="fil3" d="M36148 14147l0 -38c0,-39 13,-71 38,-94 25,-23 60,-35 104,-35l154 0c44,0 78,11 104,34 25,23 38,54 38,95l0 38c0,39 -12,71 -38,94 -25,23 -60,35 -104,35l-154 0c-44,0 -78,-12 -104,-35 -25,-23 -38,-55 -38,-94zm5 1395l0 -1064c0,-20 7,-37 22,-49 15,-13 33,-19 54,-19l277 0c22,0 41,6 55,20 14,13 21,29 21,49l0 1064c0,20 -7,37 -22,49 -14,13 -32,19 -54,19l-277 0c-22,0 -41,-6 -55,-19 -14,-13 -21,-29 -21,-49z"></path>
  <path id="6" class="fil3" d="M36892 14072c0,-20 7,-37 22,-50 14,-13 32,-20 54,-20l277 0c22,0 40,6 54,20 14,13 22,30 22,50l0 344c134,-38 253,-57 358,-57 203,0 365,55 484,165 120,109 180,267 180,473 0,424 -262,636 -787,636 -120,0 -244,-12 -373,-37 -128,-24 -225,-54 -292,-89l0 -1435zm429 604l0 661c71,17 162,26 272,26 110,0 189,-29 237,-86 48,-57 72,-151 72,-279 0,-129 -24,-222 -71,-280 -48,-58 -128,-87 -241,-87 -73,0 -162,15 -269,45z"></path>
  <path id="7" class="fil3" d="M38572 15093l0 -642c0,-20 7,-37 22,-50 14,-13 32,-19 54,-19l277 0c22,0 40,6 54,19 14,13 22,30 22,50l0 642c0,180 79,269 236,269 103,0 214,-54 333,-162l0 -750c0,-20 7,-37 22,-50 14,-13 33,-19 54,-19l277 0c22,0 41,6 55,19 14,13 22,30 22,50l0 1091c0,20 -7,36 -22,49 -14,13 -33,20 -55,20l-277 0c-21,0 -39,-6 -54,-20 -14,-13 -22,-29 -22,-49l0 -72c-142,108 -294,163 -454,163 -161,0 -291,-44 -392,-133 -101,-88 -151,-224 -151,-406z"></path>
  <path id="8" class="fil3" d="M40303 14147l0 -38c0,-39 13,-71 38,-94 25,-23 60,-35 104,-35l154 0c44,0 78,11 104,34 25,23 38,54 38,95l0 38c0,39 -12,71 -38,94 -25,23 -60,35 -104,35l-154 0c-44,0 -78,-12 -104,-35 -25,-23 -38,-55 -38,-94zm5 1395l0 -1064c0,-20 7,-37 22,-49 15,-13 33,-19 54,-19l277 0c22,0 41,6 55,20 14,13 21,29 21,49l0 1064c0,20 -7,37 -22,49 -14,13 -32,19 -54,19l-277 0c-22,0 -41,-6 -55,-19 -14,-13 -21,-29 -21,-49z"></path>
  <path id="9" class="fil3" d="M41577 15633c-173,0 -317,-55 -433,-165 -116,-110 -174,-268 -174,-473 0,-205 60,-362 180,-472 120,-109 282,-165 485,-165 105,0 224,19 358,57l0 -344c0,-20 7,-37 22,-50 14,-13 33,-20 54,-20l277 0c22,0 41,6 55,20 14,13 22,30 22,50l0 1470c0,20 -7,36 -22,49 -14,13 -33,20 -55,20l-238 0c-22,0 -41,-6 -55,-20 -14,-13 -21,-29 -21,-49l0 -35c-131,84 -283,126 -455,126zm148 -1003c-114,0 -195,29 -242,87 -47,58 -71,151 -71,279 0,128 22,221 67,279 44,58 112,88 201,88 90,0 194,-34 313,-101l0 -586c-107,-30 -196,-45 -269,-45z"></path>
  <path id="10" class="fil3" d="M42844 15471c-129,-108 -193,-266 -193,-476 0,-210 64,-368 193,-475 129,-107 314,-161 556,-161 242,0 427,54 556,161 129,107 193,266 193,475 0,210 -65,368 -193,476 -129,108 -314,161 -556,161 -242,0 -427,-54 -556,-161zm313 -767c-51,60 -77,157 -77,290 0,133 26,230 77,291 51,61 132,92 242,92 110,0 191,-31 243,-92 52,-61 77,-158 77,-291 0,-133 -26,-230 -77,-290 -52,-60 -133,-91 -243,-91 -110,0 -191,30 -242,91z"></path>
  <path id="11" class="fil3" d="M45316 14666l-191 -7c-112,0 -218,55 -320,166l0 716c0,20 -7,37 -22,49 -14,13 -33,19 -54,19l-277 0c-22,0 -41,-6 -55,-19 -14,-13 -21,-29 -21,-49l0 -1091c0,-20 7,-37 22,-50 14,-13 32,-19 54,-19l277 0c22,0 41,6 55,19 14,13 21,30 21,50l0 70c84,-55 165,-96 244,-123 78,-26 180,-40 307,-40 22,0 41,7 55,20 14,13 22,29 22,49l0 170c0,20 -7,37 -22,49 -14,13 -33,19 -55,19l-40 0z"></path>
  <path id="12" class="fil3" d="M48163 15444c-169,134 -417,201 -743,201 -327,0 -575,-67 -744,-201 -169,-134 -254,-347 -254,-638 0,-290 85,-503 254,-637 170,-134 417,-201 744,-201 327,0 574,67 743,201 169,134 254,346 254,637 0,291 -85,503 -254,638zm-339 -1038c-83,-90 -218,-134 -404,-134 -187,0 -321,45 -405,134 -84,90 -126,223 -126,401 0,178 42,311 126,400 84,89 219,134 405,134 186,0 321,-45 404,-134 83,-90 125,-223 125,-400 0,-178 -42,-311 -125,-401z"></path>
  <path id="13" class="fil3" d="M48646 15542l0 -1091c0,-20 7,-37 22,-50 14,-13 32,-19 54,-19l277 0c22,0 40,6 54,19 14,13 22,30 22,50l0 70c142,-108 294,-163 454,-163 161,0 291,44 392,133 101,88 151,224 151,406l0 643c0,20 -7,36 -22,49 -14,13 -33,20 -55,20l-277 0c-21,0 -39,-6 -54,-20 -14,-13 -22,-29 -22,-49l0 -643c0,-179 -79,-268 -237,-268 -103,0 -214,54 -332,160l0 751c0,20 -7,36 -22,49 -14,13 -33,20 -54,20l-277 0c-22,0 -39,-6 -54,-20 -15,-13 -22,-29 -22,-49z"></path>
  <path id="14" class="fil3" d="M50377 15542l0 -1470c0,-20 7,-37 22,-50 14,-13 32,-20 54,-20l277 0c22,0 40,6 54,20 14,13 22,30 22,50l0 1470c0,20 -7,36 -22,49 -14,13 -33,20 -54,20l-277 0c-22,0 -39,-6 -54,-20 -15,-13 -22,-29 -22,-49z"></path>
  <path id="15" class="fil3" d="M51111 14147l0 -38c0,-39 13,-71 38,-94 25,-23 60,-35 104,-35l154 0c44,0 78,11 104,34 25,23 38,54 38,95l0 38c0,39 -12,71 -38,94 -25,23 -60,35 -104,35l-154 0c-44,0 -78,-12 -104,-35 -25,-23 -38,-55 -38,-94zm5 1395l0 -1064c0,-20 7,-37 22,-49 15,-13 33,-19 54,-19l277 0c22,0 41,6 55,20 14,13 21,29 21,49l0 1064c0,20 -7,37 -22,49 -14,13 -32,19 -54,19l-277 0c-22,0 -41,-6 -55,-19 -14,-13 -21,-29 -21,-49z"></path>
  <path id="16" class="fil3" d="M51854 15542l0 -1091c0,-20 7,-37 22,-50 14,-13 32,-19 54,-19l277 0c22,0 40,6 54,19 14,13 22,30 22,50l0 70c142,-108 294,-163 454,-163 161,0 291,44 392,133 101,88 151,224 151,406l0 643c0,20 -7,36 -22,49 -14,13 -33,20 -55,20l-277 0c-21,0 -39,-6 -54,-20 -14,-13 -22,-29 -22,-49l0 -643c0,-179 -79,-268 -237,-268 -103,0 -214,54 -332,160l0 751c0,20 -7,36 -22,49 -14,13 -33,20 -54,20l-277 0c-22,0 -39,-6 -54,-20 -15,-13 -22,-29 -22,-49z"></path>
  <path id="17" class="fil3" d="M53700 15469c-127,-109 -191,-266 -191,-472 0,-205 64,-363 192,-473 128,-110 305,-166 533,-166 227,0 404,54 531,161 127,107 191,261 191,461l0 64c0,20 -8,37 -22,50 -14,13 -33,20 -55,20l-933 0c8,92 37,159 87,201 50,42 130,63 240,63 110,0 185,-23 226,-67 40,-45 90,-68 150,-69l185 0c22,0 41,6 55,19 14,13 22,30 22,50 0,214 -226,322 -678,321 -228,0 -406,-55 -533,-164zm244 -591l576 0c-8,-176 -104,-264 -287,-264 -183,0 -280,88 -289,264z"></path>
  <path id="18" class="fil3" d="M56098 15920l0 -1848c0,-20 7,-37 22,-50 14,-13 33,-20 55,-20l276 0c22,0 41,6 55,20 14,13 21,30 21,50l0 1848c0,20 -7,37 -21,50 -14,13 -32,20 -55,20l-276 0c-22,0 -41,-6 -55,-20 -14,-13 -22,-30 -22,-50z"></path>
  <path id="19" class="fil3" d="M57771 14109c0,-29 11,-54 35,-75 23,-21 51,-31 83,-31l1008 0c247,0 429,64 546,193 65,71 98,162 98,272 0,110 -56,207 -168,289 159,77 238,196 238,359 0,162 -63,285 -190,369 -127,84 -283,126 -467,126l-1066 0c-32,0 -60,-10 -83,-31 -23,-20 -35,-45 -35,-74l0 -1396zm467 1199l709 0c64,0 113,-17 146,-52 34,-34 51,-81 51,-141 0,-60 -17,-107 -51,-141 -34,-34 -82,-52 -146,-52l-709 0 0 386zm0 -680l663 0c52,0 94,-14 125,-42 31,-28 47,-67 47,-118 0,-51 -16,-90 -47,-118 -31,-28 -73,-43 -125,-43l-663 0 0 321z"></path>
  <path id="20" class="fil3" d="M59865 15507l0 -1398c0,-29 11,-54 35,-75 23,-21 51,-31 83,-31l231 0c34,0 62,10 85,31 23,21 34,46 34,75l0 1396c0,29 -11,54 -35,74 -24,21 -52,31 -84,31l-231 0c-32,0 -60,-10 -83,-30 -23,-20 -35,-44 -35,-73z"></path>
  <path id="21" class="fil3" d="M60535 14215l0 -106c0,-31 11,-56 33,-76 22,-20 50,-30 84,-30l1573 0c34,0 62,10 84,30 22,20 33,46 33,76l0 106c0,31 -11,56 -33,75 -22,20 -50,30 -84,30l-553 0 0 1187c0,29 -11,54 -34,73 -23,20 -50,30 -82,30l-234 0c-32,0 -60,-10 -82,-30 -23,-20 -34,-44 -34,-73l0 -1187 -553 0c-34,0 -62,-10 -84,-30 -22,-20 -33,-45 -33,-75z"></path>
  <path id="22" class="fil3" d="M62545 15503l0 -1396c0,-29 11,-54 35,-74 23,-20 51,-30 83,-30l1429 0c32,0 60,10 82,31 23,21 34,46 34,75l0 106c0,29 -11,54 -34,74 -23,21 -50,31 -82,31l-1079 0 0 326 930 0c32,0 60,10 83,31 22,21 34,46 34,75l0 105c0,29 -11,54 -34,75 -23,21 -50,31 -83,31l-930 0 0 331 1077 0c32,0 58,10 81,30 22,20 33,45 33,74l0 108c0,29 -11,54 -35,74 -23,21 -51,31 -83,31l-1423 0c-32,0 -60,-10 -83,-31 -23,-20 -35,-46 -35,-77z"></path>
  <path id="23" class="fil3" d="M64436 15507l0 -1396c0,-31 11,-57 35,-77 23,-21 51,-31 83,-31l233 0c32,0 60,10 82,31 23,21 34,47 34,77l0 1182 1079 0c32,0 60,10 82,31 23,21 34,46 34,75l0 106c0,29 -11,54 -34,74 -23,21 -50,31 -82,31l-1429 0c-32,0 -60,-10 -83,-30 -23,-20 -35,-44 -35,-73z"></path>
 </g>
</svg>