<?xml version="1.0" encoding="UTF-8"?> <svg xmlns="http://www.w3.org/2000/svg" xmlns:xlink="http://www.w3.org/1999/xlink" xml:space="preserve" width="401px" height="66px" version="1.1" style="shape-rendering:geometricPrecision; text-rendering:geometricPrecision; image-rendering:optimizeQuality; fill-rule:evenodd; clip-rule:evenodd" viewBox="0 0 4156 684"> <defs> <style type="text/css"> .str1 {stroke:#6E4D8B;stroke-width:5} .str0 {stroke:#0AA5B1;stroke-width:10;stroke-dasharray:19.300000 9.600000} .fil5 {fill:#8A61A7} .fil10 {fill:black} .fil11 {fill:#017187} .fil1 {fill:#017187} .fil4 {fill:#393A3D} .fil2 {fill:#9454C9} .fil0 {fill:white} .fil3 {fill:#0AA5B1;fill-rule:nonzero} .fil9 {fill:#00B900;fill-rule:nonzero} .fil8 {fill:#0DC143;fill-rule:nonzero} .fil6 {fill:#3B5998;fill-rule:nonzero} .fil7 {fill:url(#id0);fill-rule:nonzero} .fnt7 {font-weight:normal;font-size:75px;font-family:'Bahnschrift'} .fnt6 {font-weight:normal;font-size:91px;font-family:'Bahnschrift'} .fnt3 {font-weight:normal;font-size:98px;font-family:'Arial'} .fnt4 {font-weight:normal;font-size:99px;font-family:'Bahnschrift'} .fnt5 {font-weight:normal;font-size:108px;font-family:'Arial'} .fnt2 {font-weight:bold;font-size:155px;font-family:'Arial'} .fnt1 {font-weight:normal;font-size:254px;font-family:'Bahnschrift'} .fnt0 {font-weight:normal;font-size:428px;font-family:'Bahnschrift'} </style> <linearGradient id="id0" gradientUnits="userSpaceOnUse" x1="3027" y1="411" x2="2808" y2="540"> <stop offset="0" style="stop-opacity:1; stop-color:#A52AA4"></stop> <stop offset="0.156863" style="stop-opacity:1; stop-color:#D16C59"></stop> <stop offset="0.321569" style="stop-opacity:1; stop-color:#A52AA4"></stop> <stop offset="0.521569" style="stop-opacity:1; stop-color:#F1423A"></stop> <stop offset="1" style="stop-opacity:1; stop-color:#FDAE0E"></stop> </linearGradient> </defs> <g id="Capa_x0020_1"> <metadata id="CorelCorpID_0Corel-Layer"></metadata> <rect class="fil0 str0" x="5" y="5" width="2320" height="674"></rect> <rect class="fil0 str0" x="2325" y="5" width="1826" height="674"></rect> <g transform="matrix(1.17588 0 0 1 -1976.33 -2009.18)"> <text x="1774" y="2565" id="GB" class="fil1 fnt0">30</text> </g> <g transform="matrix(1.36939 0 0 1 -2062.94 -2120.76)"> <text x="2005" y="2565" class="fil1 fnt1">GB</text> </g> <g id="_2170437449616"> <g transform="matrix(1.13325 0 0 1 971.447 -2377.76)"> <text x="1371" y="2565" id="En_x0020_alta_x0020_Velocidad_x0020_Regular" class="fil2 fnt2">TODO ILIMITADO</text> </g> <g transform="matrix(1.2623 0 0 1 704.474 -2241.37)"> <text x="1371" y="2565" class="fil1 fnt3">INTERNET, Llamadas y SMS</text> </g> </g> <g id="_2170437451088"> <g> <path class="fil3" d="M4055 354c3,0 5,2 5,5 0,3 -2,5 -5,5l0 -10zm-10 10l0 -10 10 0 0 10 -10 0zm0 0c-3,0 -5,-2 -5,-5 0,-3 2,-5 5,-5l0 10zm-29 -10c3,0 5,2 5,5 0,3 -2,5 -5,5l0 -10zm-10 10l0 -10 10 0 0 10 -10 0zm0 0c-3,0 -5,-2 -5,-5 0,-3 2,-5 5,-5l0 10zm-29 -10c3,0 5,2 5,5 0,3 -2,5 -5,5l0 -10zm-10 10l0 -10 10 0 0 10 -10 0zm0 0c-3,0 -5,-2 -5,-5 0,-3 2,-5 5,-5l0 10zm-29 -10c3,0 5,2 5,5 0,3 -2,5 -5,5l0 -10zm-10 10l0 -10 10 0 0 10 -10 0zm0 0c-3,0 -5,-2 -5,-5 0,-3 2,-5 5,-5l0 10zm-29 -10c3,0 5,2 5,5 0,3 -2,5 -5,5l0 -10zm-10 10l0 -10 10 0 0 10 -10 0zm0 0c-3,0 -5,-2 -5,-5 0,-3 2,-5 5,-5l0 10zm-29 -10c3,0 5,2 5,5 0,3 -2,5 -5,5l0 -10zm-10 10l0 -10 10 0 0 10 -10 0zm0 0c-3,0 -5,-2 -5,-5 0,-3 2,-5 5,-5l0 10zm-29 -10c3,0 5,2 5,5 0,3 -2,5 -5,5l0 -10zm-10 10l0 -10 10 0 0 10 -10 0zm0 0c-3,0 -5,-2 -5,-5 0,-3 2,-5 5,-5l0 10zm-29 -10c3,0 5,2 5,5 0,3 -2,5 -5,5l0 -10zm-10 10l0 -10 10 0 0 10 -10 0zm0 0c-3,0 -5,-2 -5,-5 0,-3 2,-5 5,-5l0 10zm-29 -10c3,0 5,2 5,5 0,3 -2,5 -5,5l0 -10zm-10 10l0 -10 10 0 0 10 -10 0zm0 0c-3,0 -5,-2 -5,-5 0,-3 2,-5 5,-5l0 10zm-29 -10c3,0 5,2 5,5 0,3 -2,5 -5,5l0 -10zm-10 10l0 -10 10 0 0 10 -10 0zm0 0c-3,0 -5,-2 -5,-5 0,-3 2,-5 5,-5l0 10zm-29 -10c3,0 5,2 5,5 0,3 -2,5 -5,5l0 -10zm-10 10l0 -10 10 0 0 10 -10 0zm0 0c-3,0 -5,-2 -5,-5 0,-3 2,-5 5,-5l0 10zm-29 -10c3,0 5,2 5,5 0,3 -2,5 -5,5l0 -10zm-10 10l0 -10 10 0 0 10 -10 0zm0 0c-3,0 -5,-2 -5,-5 0,-3 2,-5 5,-5l0 10zm-29 -10c3,0 5,2 5,5 0,3 -2,5 -5,5l0 -10zm-10 10l0 -10 10 0 0 10 -10 0zm0 0c-3,0 -5,-2 -5,-5 0,-3 2,-5 5,-5l0 10zm-29 -10c3,0 5,2 5,5 0,3 -2,5 -5,5l0 -10zm-10 10l0 -10 10 0 0 10 -10 0zm0 0c-3,0 -5,-2 -5,-5 0,-3 2,-5 5,-5l0 10zm-29 -10c3,0 5,2 5,5 0,3 -2,5 -5,5l0 -10zm-10 10l0 -10 10 0 0 10 -10 0zm0 0c-3,0 -5,-2 -5,-5 0,-3 2,-5 5,-5l0 10zm-29 -10c3,0 5,2 5,5 0,3 -2,5 -5,5l0 -10zm-10 10l0 -10 10 0 0 10 -10 0zm0 0c-3,0 -5,-2 -5,-5 0,-3 2,-5 5,-5l0 10zm-29 -10c3,0 5,2 5,5 0,3 -2,5 -5,5l0 -10zm-10 10l0 -10 10 0 0 10 -10 0zm0 0c-3,0 -5,-2 -5,-5 0,-3 2,-5 5,-5l0 10zm-29 -10c3,0 5,2 5,5 0,3 -2,5 -5,5l0 -10zm-10 10l0 -10 10 0 0 10 -10 0zm0 0c-3,0 -5,-2 -5,-5 0,-3 2,-5 5,-5l0 10zm-29 -10c3,0 5,2 5,5 0,3 -2,5 -5,5l0 -10zm-10 10l0 -10 10 0 0 10 -10 0zm0 0c-3,0 -5,-2 -5,-5 0,-3 2,-5 5,-5l0 10zm-29 -10c3,0 5,2 5,5 0,3 -2,5 -5,5l0 -10zm-10 10l0 -10 10 0 0 10 -10 0zm0 0c-3,0 -5,-2 -5,-5 0,-3 2,-5 5,-5l0 10zm-29 -10c3,0 5,2 5,5 0,3 -2,5 -5,5l0 -10zm-10 10l0 -10 10 0 0 10 -10 0zm0 0c-3,0 -5,-2 -5,-5 0,-3 2,-5 5,-5l0 10zm-29 -10c3,0 5,2 5,5 0,3 -2,5 -5,5l0 -10zm-10 10l0 -10 10 0 0 10 -10 0zm0 0c-3,0 -5,-2 -5,-5 0,-3 2,-5 5,-5l0 10zm-29 -10c3,0 5,2 5,5 0,3 -2,5 -5,5l0 -10zm-10 10l0 -10 10 0 0 10 -10 0zm0 0c-3,0 -5,-2 -5,-5 0,-3 2,-5 5,-5l0 10zm-29 -10c3,0 5,2 5,5 0,3 -2,5 -5,5l0 -10zm-10 10l0 -10 10 0 0 10 -10 0zm0 0c-3,0 -5,-2 -5,-5 0,-3 2,-5 5,-5l0 10zm-29 -10c3,0 5,2 5,5 0,3 -2,5 -5,5l0 -10zm-10 10l0 -10 10 0 0 10 -10 0zm0 0c-3,0 -5,-2 -5,-5 0,-3 2,-5 5,-5l0 10zm-29 -10c3,0 5,2 5,5 0,3 -2,5 -5,5l0 -10zm-10 10l0 -10 10 0 0 10 -10 0zm0 0c-3,0 -5,-2 -5,-5 0,-3 2,-5 5,-5l0 10zm-29 -10c3,0 5,2 5,5 0,3 -2,5 -5,5l0 -10zm-10 10l0 -10 10 0 0 10 -10 0zm0 0c-3,0 -5,-2 -5,-5 0,-3 2,-5 5,-5l0 10zm-29 -10c3,0 5,2 5,5 0,3 -2,5 -5,5l0 -10zm-10 10l0 -10 10 0 0 10 -10 0zm0 0c-3,0 -5,-2 -5,-5 0,-3 2,-5 5,-5l0 10zm-29 -10c3,0 5,2 5,5 0,3 -2,5 -5,5l0 -10zm-10 10l0 -10 10 0 0 10 -10 0zm0 0c-3,0 -5,-2 -5,-5 0,-3 2,-5 5,-5l0 10zm-29 -10c3,0 5,2 5,5 0,3 -2,5 -5,5l0 -10zm-10 10l0 -10 10 0 0 10 -10 0zm0 0c-3,0 -5,-2 -5,-5 0,-3 2,-5 5,-5l0 10zm-29 -10c3,0 5,2 5,5 0,3 -2,5 -5,5l0 -10zm-10 10l0 -10 10 0 0 10 -10 0zm0 0c-3,0 -5,-2 -5,-5 0,-3 2,-5 5,-5l0 10zm-29 -10c3,0 5,2 5,5 0,3 -2,5 -5,5l0 -10zm-10 10l0 -10 10 0 0 10 -10 0zm0 0c-3,0 -5,-2 -5,-5 0,-3 2,-5 5,-5l0 10zm-29 -10c3,0 5,2 5,5 0,3 -2,5 -5,5l0 -10zm-10 10l0 -10 10 0 0 10 -10 0zm0 0c-3,0 -5,-2 -5,-5 0,-3 2,-5 5,-5l0 10zm-29 -10c3,0 5,2 5,5 0,3 -2,5 -5,5l0 -10zm-10 10l0 -10 10 0 0 10 -10 0zm0 0c-3,0 -5,-2 -5,-5 0,-3 2,-5 5,-5l0 10zm-29 -10c3,0 5,2 5,5 0,3 -2,5 -5,5l0 -10zm-10 10l0 -10 10 0 0 10 -10 0zm0 0c-3,0 -5,-2 -5,-5 0,-3 2,-5 5,-5l0 10zm-29 -10c3,0 5,2 5,5 0,3 -2,5 -5,5l0 -10zm-10 10l0 -10 10 0 0 10 -10 0zm0 0c-3,0 -5,-2 -5,-5 0,-3 2,-5 5,-5l0 10zm-29 -10c3,0 5,2 5,5 0,3 -2,5 -5,5l0 -10zm-10 10l0 -10 10 0 0 10 -10 0zm0 0c-3,0 -5,-2 -5,-5 0,-3 2,-5 5,-5l0 10zm-29 -10c3,0 5,2 5,5 0,3 -2,5 -5,5l0 -10zm-10 10l0 -10 10 0 0 10 -10 0zm0 0c-3,0 -5,-2 -5,-5 0,-3 2,-5 5,-5l0 10zm-29 -10c3,0 5,2 5,5 0,3 -2,5 -5,5l0 -10zm-10 10l0 -10 10 0 0 10 -10 0zm0 0c-3,0 -5,-2 -5,-5 0,-3 2,-5 5,-5l0 10zm-29 -10c3,0 5,2 5,5 0,3 -2,5 -5,5l0 -10zm-10 10l0 -10 10 0 0 10 -10 0zm0 0c-3,0 -5,-2 -5,-5 0,-3 2,-5 5,-5l0 10zm-29 -10c3,0 5,2 5,5 0,3 -2,5 -5,5l0 -10zm-10 10l0 -10 10 0 0 10 -10 0zm0 0c-3,0 -5,-2 -5,-5 0,-3 2,-5 5,-5l0 10zm-29 -10c3,0 5,2 5,5 0,3 -2,5 -5,5l0 -10zm-10 10l0 -10 10 0 0 10 -10 0zm0 0c-3,0 -5,-2 -5,-5 0,-3 2,-5 5,-5l0 10zm-29 -10c3,0 5,2 5,5 0,3 -2,5 -5,5l0 -10zm-10 10l0 -10 10 0 0 10 -10 0zm0 0c-3,0 -5,-2 -5,-5 0,-3 2,-5 5,-5l0 10z"></path> </g> </g> <g> <g> <path class="fil3" d="M1735 31c0,-3 2,-5 5,-5 3,0 5,2 5,5l-10 0zm10 10l-10 0 0 -10 10 0 0 10zm0 0c0,3 -2,5 -5,5 -3,0 -5,-2 -5,-5l10 0zm-10 29c0,-3 2,-5 5,-5 3,0 5,2 5,5l-10 0zm10 10l-10 0 0 -10 10 0 0 10zm0 0c0,3 -2,5 -5,5 -3,0 -5,-2 -5,-5l10 0zm-10 29c0,-3 2,-5 5,-5 3,0 5,2 5,5l-10 0zm10 10l-10 0 0 -10 10 0 0 10zm0 0c0,3 -2,5 -5,5 -3,0 -5,-2 -5,-5l10 0zm-10 29c0,-3 2,-5 5,-5 3,0 5,2 5,5l-10 0zm10 10l-10 0 0 -10 10 0 0 10zm0 0c0,3 -2,5 -5,5 -3,0 -5,-2 -5,-5l10 0zm-10 29c0,-3 2,-5 5,-5 3,0 5,2 5,5l-10 0zm10 10l-10 0 0 -10 10 0 0 10zm0 0c0,3 -2,5 -5,5 -3,0 -5,-2 -5,-5l10 0zm-10 29c0,-3 2,-5 5,-5 3,0 5,2 5,5l-10 0zm10 10l-10 0 0 -10 10 0 0 10zm0 0c0,3 -2,5 -5,5 -3,0 -5,-2 -5,-5l10 0zm-10 29c0,-3 2,-5 5,-5 3,0 5,2 5,5l-10 0zm10 10l-10 0 0 -10 10 0 0 10zm0 0c0,3 -2,5 -5,5 -3,0 -5,-2 -5,-5l10 0zm-10 29c0,-3 2,-5 5,-5 3,0 5,2 5,5l-10 0zm10 10l-10 0 0 -10 10 0 0 10zm0 0c0,3 -2,5 -5,5 -3,0 -5,-2 -5,-5l10 0zm-10 29c0,-3 2,-5 5,-5 3,0 5,2 5,5l-10 0zm10 10l-10 0 0 -10 10 0 0 10zm0 0c0,3 -2,5 -5,5 -3,0 -5,-2 -5,-5l10 0zm-10 29c0,-3 2,-5 5,-5 3,0 5,2 5,5l-10 0zm10 10l-10 0 0 -10 10 0 0 10zm0 0c0,3 -2,5 -5,5 -3,0 -5,-2 -5,-5l10 0zm-10 29c0,-3 2,-5 5,-5 3,0 5,2 5,5l-10 0zm10 10l-10 0 0 -10 10 0 0 10zm0 0c0,3 -2,5 -5,5 -3,0 -5,-2 -5,-5l10 0zm-10 29c0,-3 2,-5 5,-5 3,0 5,2 5,5l-10 0zm10 10l-10 0 0 -10 10 0 0 10zm0 0c0,3 -2,5 -5,5 -3,0 -5,-2 -5,-5l10 0zm-10 29c0,-3 2,-5 5,-5 3,0 5,2 5,5l-10 0zm10 10l-10 0 0 -10 10 0 0 10zm0 0c0,3 -2,5 -5,5 -3,0 -5,-2 -5,-5l10 0zm-10 29c0,-3 2,-5 5,-5 3,0 5,2 5,5l-10 0zm10 10l-10 0 0 -10 10 0 0 10zm0 0c0,3 -2,5 -5,5 -3,0 -5,-2 -5,-5l10 0zm-10 29c0,-3 2,-5 5,-5 3,0 5,2 5,5l-10 0zm10 10l-10 0 0 -10 10 0 0 10zm0 0c0,3 -2,5 -5,5 -3,0 -5,-2 -5,-5l10 0zm-10 29c0,-3 2,-5 5,-5 3,0 5,2 5,5l-10 0zm10 10l-10 0 0 -10 10 0 0 10zm0 0c0,3 -2,5 -5,5 -3,0 -5,-2 -5,-5l10 0zm-10 29c0,-3 2,-5 5,-5 3,0 5,2 5,5l-10 0zm10 10l-10 0 0 -10 10 0 0 10zm0 0c0,3 -2,5 -5,5 -3,0 -5,-2 -5,-5l10 0z"></path> </g> </g> <g transform="matrix(0.747436 0 0 1 307.68 -2246.71)"> <text x="2005" y="2565" class="fil1 fnt4">Plan: S/.39.90</text> </g> <g transform="matrix(0.747436 0 0 1 307.68 -2246.71)"> <text x="2005" y="2683" class="fil1 fnt4">Envío: Gratis. </text> </g> <g transform="matrix(0.747436 0 0 1 307.68 -2246.71)"> <text x="2005" y="2801" class="fil1 fnt4">Total: S/.39.90</text> </g> <text x="55" y="175" id="Bono_x0020_Línea_x0020_Nueva" class="fil4 fnt5">ilimitado 39.90</text> <text x="754" y="175" id="Bono_x0020_Línea_x0020_Nueva" class="fil5 fnt5"> - PORTABILIDAD</text> <g> <g> <g id="_2170437459536"> <path class="fil6" d="M2650 523l0 -43 15 0 2 -17 -17 0 0 -10c0,-3 0,-4 1,-5 0,0 0,-1 1,-2 1,-2 4,-3 8,-3l8 0 0 -15c-4,-1 -8,-1 -13,-1 -9,0 -15,3 -19,10 -2,4 -3,8 -3,12l0 13 -14 0 0 17 14 0 0 43 17 0zm-7 42c-12,0 -23,-2 -34,-7 -11,-5 -21,-11 -29,-19 -9,-9 -15,-18 -19,-29 -5,-11 -7,-22 -7,-34 0,-12 2,-23 7,-34 4,-11 11,-21 19,-29 8,-9 18,-15 29,-19 11,-5 22,-7 34,-7 12,0 23,2 34,7 11,4 20,11 29,19 9,8 15,18 19,29 5,11 7,22 7,34 0,12 -2,23 -7,34 -5,11 -11,20 -19,29 -9,8 -18,15 -29,19 -11,4 -22,7 -34,7z"></path> <path class="fil7" d="M2868 565c-12,0 -23,-2 -34,-7 -11,-5 -21,-11 -29,-19 -9,-9 -15,-18 -19,-29 -5,-11 -7,-22 -7,-34 0,-12 2,-23 7,-34 4,-11 11,-21 19,-29 8,-9 18,-15 29,-19 11,-5 22,-7 34,-7 12,0 23,2 34,7 11,4 20,11 29,19 9,8 15,18 19,29 2,4 3,9 4,13l0 42c-1,5 -3,9 -4,13 -5,11 -11,20 -19,29 -9,8 -18,15 -29,19 -11,4 -22,7 -34,7zm0 -133c-4,0 -7,0 -9,0 -2,0 -4,0 -5,0 -1,0 -3,0 -4,0 -5,0 -8,1 -11,2 -3,1 -6,3 -8,5 -2,3 -4,5 -5,8 -1,3 -2,6 -2,11 0,2 0,3 0,4 0,1 0,3 0,5 0,2 0,5 0,9 0,4 0,7 0,9 0,2 0,4 0,5 0,1 0,3 0,4 0,5 1,8 2,11 1,3 3,6 5,8 2,2 5,4 8,5 3,1 6,2 11,2 2,0 3,0 4,0 1,0 3,0 5,0 2,0 5,0 9,0 4,0 7,0 9,0 2,0 4,0 5,0 1,0 3,0 4,0 5,0 8,-1 11,-2 3,-1 6,-3 8,-5 2,-2 4,-5 5,-8 1,-3 2,-6 2,-11 0,-2 0,-3 0,-4 0,-1 0,-3 0,-5 0,-2 0,-5 0,-9 0,-4 0,-7 0,-9 0,-2 0,-4 0,-5 0,-1 0,-3 0,-4 0,-5 -1,-8 -2,-11 -1,-3 -3,-6 -5,-8 -2,-2 -5,-4 -8,-5 -3,-1 -6,-2 -11,-2 -2,0 -3,0 -4,0 -1,0 -3,0 -5,0 -2,0 -5,0 -9,0zm-4 8c1,0 2,0 3,0 1,0 1,0 2,0 4,0 7,0 9,0 2,0 4,0 5,0 1,0 3,0 4,0 4,0 7,1 8,2 2,1 4,2 5,3 2,2 3,3 3,5 1,1 1,4 2,8 0,2 0,3 0,4 0,1 0,3 0,5 0,2 0,5 0,9 0,4 0,7 0,9 0,2 0,4 0,5 0,1 0,3 0,4 0,4 -1,7 -2,8 -1,2 -2,4 -3,5 -1,1 -3,3 -5,3 -1,1 -4,1 -8,2 -2,0 -3,0 -4,0 -1,0 -3,0 -5,0 -2,0 -5,0 -9,0 -4,0 -7,0 -9,0 -2,0 -4,0 -5,0 -1,0 -3,0 -4,0 -4,0 -7,-1 -8,-2 -2,-1 -4,-2 -5,-3 -2,-2 -3,-3 -3,-5 -1,-1 -1,-4 -2,-8 0,-2 0,-3 0,-4 0,-1 0,-3 0,-5 0,-2 0,-5 0,-9 0,-4 0,-7 0,-9 0,-2 0,-4 0,-5 0,-1 0,-3 0,-4 0,-4 1,-7 2,-8 1,-2 2,-4 3,-5 2,-2 3,-3 5,-3 1,-1 4,-1 8,-2 1,0 3,0 4,0 1,0 2,0 4,0 2,0 4,0 7,0zm28 8c-2,0 -3,1 -4,2 -1,1 -2,2 -2,4 0,2 1,3 2,4 1,1 2,2 4,2 1,0 3,-1 4,-2 1,-1 2,-2 2,-4 0,-2 -1,-3 -2,-4 -1,-1 -2,-2 -4,-2zm-24 6c-6,0 -12,2 -16,7 -5,5 -7,10 -7,16 0,7 2,12 7,16 5,5 10,7 16,7 6,0 12,-2 16,-7 5,-5 7,-10 7,-16 0,-6 -2,-12 -7,-16 -5,-4 -10,-7 -16,-7zm0 8c4,0 8,2 11,4 3,3 5,7 5,11 0,4 -2,8 -5,11 -3,3 -6,4 -11,4 -4,0 -8,-2 -11,-4 -3,-3 -4,-7 -4,-11 0,-4 1,-8 4,-11 3,-3 7,-4 11,-4z"></path> </g> <g transform="matrix(0.747436 0 0 1 1162.31 -1930.99)"> <text x="2005" y="2565" class="fil1 fnt4">Fotos</text> </g> </g> <g> <g id="_2170437456816"> <path class="fil8" d="M3161 484c-4,11 -11,19 -22,24 -5,2 -10,3 -16,3 -1,0 -3,0 -4,0 -5,-1 -11,-3 -17,-6l-15 5c0,-1 1,-4 3,-10l2 -4c0,0 -1,-1 -3,-4 -3,-5 -4,-10 -5,-15 0,-2 0,-3 0,-5 0,-13 5,-23 16,-31 6,-4 12,-7 19,-7 1,0 2,0 3,0 12,0 22,5 29,14 6,7 10,15 10,24 0,4 -1,8 -2,12zm9 -14c-1,-12 -6,-22 -14,-30 -8,-8 -18,-12 -30,-13l-6 0c-13,1 -23,6 -30,14 -9,9 -13,20 -13,32 0,7 2,14 5,21 0,1 1,2 1,3 0,1 0,2 0,3 -5,14 -8,22 -8,22l0 -1c0,0 0,0 0,0 3,-1 7,-3 13,-4 7,-2 11,-4 13,-4 8,4 15,6 22,6l2 0c8,0 16,-3 23,-7 13,-8 21,-20 22,-36l0 -6zm-23 13c-1,-1 -2,-2 -5,-3 -3,-2 -5,-2 -6,-2l0 0c0,0 -1,1 -3,3 -2,2 -3,3 -3,3l0 0c-1,0 -3,-1 -5,-2 -3,-2 -6,-4 -8,-7 -2,-3 -3,-4 -3,-5 0,0 1,-1 2,-3 1,-1 2,-2 2,-3 0,0 -1,-2 -2,-6 -1,-3 -2,-5 -3,-5 -1,0 -1,0 -2,0 -1,0 -2,0 -3,0 -4,1 -6,5 -6,11 0,3 2,8 5,13 5,7 11,12 16,15 5,2 8,4 12,4l1 0c2,0 4,-1 6,-2 3,-2 5,-5 5,-8 0,0 0,-1 0,-1zm-24 81c-12,0 -23,-2 -34,-7 -11,-5 -20,-11 -29,-19 -8,-9 -15,-18 -19,-29 -4,-11 -7,-22 -7,-34 0,-12 2,-23 7,-34 5,-11 11,-21 19,-29 9,-9 18,-15 29,-19 11,-5 22,-7 34,-7 12,0 23,2 34,7 11,4 21,11 29,19 8,8 15,18 19,29 4,11 7,22 7,34 0,12 -2,23 -7,34 -5,11 -11,20 -19,29 -9,8 -18,15 -29,19 -11,4 -22,7 -34,7z"></path> <path class="fil9" d="M3346 518l-1 0c-1,0 -1,-1 -1,-2 1,-4 1,-6 1,-7 0,-1 0,-2 0,-2 0,-1 -1,-1 -2,-1 -1,0 -2,-1 -2,-1 -11,-2 -20,-6 -27,-12 -7,-7 -11,-15 -11,-24 0,-7 2,-13 6,-18 4,-6 9,-10 16,-13 7,-3 14,-5 23,-5 8,0 16,2 23,5 7,3 12,8 16,13 4,6 6,12 6,18 0,8 -3,16 -10,22 -6,7 -15,14 -26,21 -6,4 -10,6 -12,6zm-8 -38c1,0 2,0 2,0 0,0 0,-4 0,-10 0,-7 0,-10 0,-10 0,0 0,0 -1,0 -2,0 -4,0 -4,0 0,0 0,4 0,10 0,7 0,10 0,10 0,0 1,0 2,0zm22 0c1,0 2,0 2,0 0,0 0,-4 0,-10 0,-7 0,-10 0,-10 0,0 0,0 -1,0 -2,0 -4,0 -4,0 0,0 0,4 0,12 -6,-8 -9,-12 -9,-12 0,0 0,0 0,0l-2 0c-1,0 -2,0 -2,0 0,0 0,4 0,10 0,7 0,10 0,10 0,0 1,0 2,0 2,0 2,0 2,-1l0 -12 9 12c0,0 1,0 2,0zm-28 0c1,0 1,-1 1,-3 0,-2 0,-2 -1,-2l-9 0 0 -16c0,-1 -1,-1 -3,-1 -2,0 -3,0 -3,1l0 20c0,1 0,1 1,1l13 0zm47 0c1,0 1,-1 1,-3 0,-2 0,-2 -1,-2l-9 0 0 -3c6,0 9,0 9,0 0,0 0,-1 0,-2 0,-2 0,-3 -1,-3l-9 0 0 -3 9 0c1,0 1,-1 1,-2 0,-2 0,-3 -1,-3 -9,0 -13,0 -13,0 0,0 0,4 0,10 0,7 0,10 0,10 0,0 0,0 1,0l13 0zm-30 85l0 0c12,0 23,-2 34,-7 11,-5 21,-11 29,-19 8,-9 15,-18 19,-29 4,-11 7,-22 7,-34 0,-12 -2,-23 -7,-34 -5,-11 -11,-21 -19,-29 -9,-9 -18,-15 -29,-19 -11,-5 -22,-7 -34,-7 -12,0 -23,2 -34,7 -11,4 -20,11 -29,19 -8,8 -15,18 -19,29 -5,11 -7,22 -7,34 0,12 2,23 7,34 5,11 11,20 19,29 9,8 18,15 29,19 11,4 22,7 34,7z"></path> </g> <g transform="matrix(0.747436 0 0 1 1595.15 -1930.99)"> <text x="2005" y="2565" class="fil1 fnt4">ilimitado</text> </g> </g> <g> <path class="fil10 str1" d="M3660 477c-10,0 -19,-3 -26,-9 -8,-6 -14,-15 -16,-26 -1,-3 -1,-5 -1,-8l-28 0 0 75 0 41c0,11 -7,20 -17,24 -3,1 -6,1 -9,1 -4,0 -8,-2 -11,-4 -7,-4 -12,-12 -12,-21 0,-14 11,-25 25,-25 3,0 5,0 8,1l0 -21 0 -7c-3,0 -5,-1 -8,-1 -15,0 -29,6 -40,18 -8,9 -12,20 -13,31 -1,15 5,30 15,40 2,2 3,3 5,4 9,7 21,11 32,11 3,0 5,0 8,-1 11,-2 21,-7 29,-15 10,-10 15,-23 15,-37l0 -61c5,4 10,7 15,9 9,4 18,5 27,5l0 -20 0 -7c0,0 0,0 0,0l0 0z"></path> <g transform="matrix(0.984016 0 0 1 1845.65 -2105.02)"> <text x="1898" y="2565" class="fil1 fnt6">30GB</text> </g> <g transform="matrix(0.984016 0 0 1 1845.65 -2105.02)"> </g> <g transform="matrix(0.984016 0 0 1 1845.65 -2105.02)"> </g> <g transform="matrix(0.984016 0 0 1 1845.65 -2105.02)"> <text x="1896" y="2658" class="fil11 fnt7">Extras</text> </g> <g transform="matrix(0.984016 0 0 1 1845.65 -2105.02)"> <text x="1903" y="2748" class="fil11 fnt7">TikTok</text> </g> </g> </g> </g> </svg> 