<?xml version="1.0" encoding="UTF-8"?> <svg xmlns="http://www.w3.org/2000/svg" xmlns:xlink="http://www.w3.org/1999/xlink" xml:space="preserve" width="400px" height="66px" version="1.1" style="shape-rendering:geometricPrecision; text-rendering:geometricPrecision; image-rendering:optimizeQuality; fill-rule:evenodd; clip-rule:evenodd" viewBox="0 0 4146 683"> <defs> <style type="text/css"> .str0 {stroke:#0AA5B1;stroke-width:10;stroke-dasharray:19.200000 9.600000} .str1 {stroke:#0AA5B1;stroke-width:10;stroke-dasharray:19.200000 9.600000} .fil4 {fill:#8A61A7} .fil1 {fill:#017187} .fil3 {fill:#393A3D} .fil2 {fill:#9454C9} .fil0 {fill:white} .fil5 {fill:#0AA5B1;fill-rule:nonzero} .fil6 {fill:#3B5998;fill-rule:nonzero} .fil7 {fill:url(#id0);fill-rule:nonzero} .fnt4 {font-weight:normal;font-size:97px;font-family:'Arial'} .fnt2 {font-weight:normal;font-size:98px;font-family:'Bahnschrift'} .fnt5 {font-weight:normal;font-size:108px;font-family:'Arial'} .fnt3 {font-weight:bold;font-size:155px;font-family:'Arial'} .fnt1 {font-weight:normal;font-size:253px;font-family:'Bahnschrift'} .fnt0 {font-weight:normal;font-size:427px;font-family:'Bahnschrift'} </style> <linearGradient id="id0" gradientUnits="userSpaceOnUse" x1="3502" y1="410" x2="3283" y2="539"> <stop offset="0" style="stop-opacity:1; stop-color:#A52AA4"></stop> <stop offset="0.156863" style="stop-opacity:1; stop-color:#D16C59"></stop> <stop offset="0.321569" style="stop-opacity:1; stop-color:#A52AA4"></stop> <stop offset="0.521569" style="stop-opacity:1; stop-color:#F1423A"></stop> <stop offset="1" style="stop-opacity:1; stop-color:#FDAE0E"></stop> </linearGradient> </defs> <g id="Capa_x0020_1"> <metadata id="CorelCorpID_0Corel-Layer"></metadata> <rect class="fil0 str0" x="5" y="5" width="2314" height="673"></rect> <rect class="fil0 str1" x="2319" y="5" width="1822" height="673"></rect> <g transform="matrix(1.17588 0 0 1 -1971.4 -3446.39)"> <text x="1772" y="4001" id="GB" class="fil1 fnt0">20</text> </g> <g transform="matrix(1.36939 0 0 1 -2057.79 -3557.69)"> <text x="2000" y="4001" class="fil1 fnt1">GB</text> </g> <g transform="matrix(0.747436 0 0 1 -796.771 -3449.48)"> <text x="2000" y="4001" class="fil1 fnt2">(10 GB regular)</text> </g> <g id="_3154233069440"> <g transform="matrix(1.13325 0 0 1 969.025 -3814.05)"> <text x="1368" y="4001" id="En_x0020_alta_x0020_Velocidad_x0020_Regular" class="fil2 fnt3">TODO ILIMITADO</text> </g> <g transform="matrix(1.2623 0 0 1 702.718 -3678)"> <text x="1367" y="4001" class="fil1 fnt4">INTERNET, Llamadas y SMS</text> </g> </g> <text x="55" y="176" id="Bono_x0020_Línea_x0020_Nueva" class="fil3 fnt5">ilimitado 29.90</text> <text x="752" y="176" id="Bono_x0020_Línea_x0020_Nueva" class="fil4 fnt5"> - PORTABILIDAD</text> <g id="_3154233073152"> <g> <path class="fil5" d="M4045 353c3,0 5,2 5,5 0,3 -2,5 -5,5l0 -10zm-10 10l0 -10 10 0 0 10 -10 0zm0 0c-3,0 -5,-2 -5,-5 0,-3 2,-5 5,-5l0 10zm-29 -10c3,0 5,2 5,5 0,3 -2,5 -5,5l0 -10zm-10 10l0 -10 10 0 0 10 -10 0zm0 0c-3,0 -5,-2 -5,-5 0,-3 2,-5 5,-5l0 10zm-29 -10c3,0 5,2 5,5 0,3 -2,5 -5,5l0 -10zm-10 10l0 -10 10 0 0 10 -10 0zm0 0c-3,0 -5,-2 -5,-5 0,-3 2,-5 5,-5l0 10zm-29 -10c3,0 5,2 5,5 0,3 -2,5 -5,5l0 -10zm-10 10l0 -10 10 0 0 10 -10 0zm0 0c-3,0 -5,-2 -5,-5 0,-3 2,-5 5,-5l0 10zm-29 -10c3,0 5,2 5,5 0,3 -2,5 -5,5l0 -10zm-10 10l0 -10 10 0 0 10 -10 0zm0 0c-3,0 -5,-2 -5,-5 0,-3 2,-5 5,-5l0 10zm-29 -10c3,0 5,2 5,5 0,3 -2,5 -5,5l0 -10zm-10 10l0 -10 10 0 0 10 -10 0zm0 0c-3,0 -5,-2 -5,-5 0,-3 2,-5 5,-5l0 10zm-29 -10c3,0 5,2 5,5 0,3 -2,5 -5,5l0 -10zm-10 10l0 -10 10 0 0 10 -10 0zm0 0c-3,0 -5,-2 -5,-5 0,-3 2,-5 5,-5l0 10zm-29 -10c3,0 5,2 5,5 0,3 -2,5 -5,5l0 -10zm-10 10l0 -10 10 0 0 10 -10 0zm0 0c-3,0 -5,-2 -5,-5 0,-3 2,-5 5,-5l0 10zm-29 -10c3,0 5,2 5,5 0,3 -2,5 -5,5l0 -10zm-10 10l0 -10 10 0 0 10 -10 0zm0 0c-3,0 -5,-2 -5,-5 0,-3 2,-5 5,-5l0 10zm-29 -10c3,0 5,2 5,5 0,3 -2,5 -5,5l0 -10zm-10 10l0 -10 10 0 0 10 -10 0zm0 0c-3,0 -5,-2 -5,-5 0,-3 2,-5 5,-5l0 10zm-29 -10c3,0 5,2 5,5 0,3 -2,5 -5,5l0 -10zm-10 10l0 -10 10 0 0 10 -10 0zm0 0c-3,0 -5,-2 -5,-5 0,-3 2,-5 5,-5l0 10zm-29 -10c3,0 5,2 5,5 0,3 -2,5 -5,5l0 -10zm-10 10l0 -10 10 0 0 10 -10 0zm0 0c-3,0 -5,-2 -5,-5 0,-3 2,-5 5,-5l0 10zm-29 -10c3,0 5,2 5,5 0,3 -2,5 -5,5l0 -10zm-10 10l0 -10 10 0 0 10 -10 0zm0 0c-3,0 -5,-2 -5,-5 0,-3 2,-5 5,-5l0 10zm-29 -10c3,0 5,2 5,5 0,3 -2,5 -5,5l0 -10zm-10 10l0 -10 10 0 0 10 -10 0zm0 0c-3,0 -5,-2 -5,-5 0,-3 2,-5 5,-5l0 10zm-29 -10c3,0 5,2 5,5 0,3 -2,5 -5,5l0 -10zm-10 10l0 -10 10 0 0 10 -10 0zm0 0c-3,0 -5,-2 -5,-5 0,-3 2,-5 5,-5l0 10zm-29 -10c3,0 5,2 5,5 0,3 -2,5 -5,5l0 -10zm-10 10l0 -10 10 0 0 10 -10 0zm0 0c-3,0 -5,-2 -5,-5 0,-3 2,-5 5,-5l0 10zm-29 -10c3,0 5,2 5,5 0,3 -2,5 -5,5l0 -10zm-10 10l0 -10 10 0 0 10 -10 0zm0 0c-3,0 -5,-2 -5,-5 0,-3 2,-5 5,-5l0 10zm-29 -10c3,0 5,2 5,5 0,3 -2,5 -5,5l0 -10zm-10 10l0 -10 10 0 0 10 -10 0zm0 0c-3,0 -5,-2 -5,-5 0,-3 2,-5 5,-5l0 10zm-29 -10c3,0 5,2 5,5 0,3 -2,5 -5,5l0 -10zm-10 10l0 -10 10 0 0 10 -10 0zm0 0c-3,0 -5,-2 -5,-5 0,-3 2,-5 5,-5l0 10zm-29 -10c3,0 5,2 5,5 0,3 -2,5 -5,5l0 -10zm-10 10l0 -10 10 0 0 10 -10 0zm0 0c-3,0 -5,-2 -5,-5 0,-3 2,-5 5,-5l0 10zm-29 -10c3,0 5,2 5,5 0,3 -2,5 -5,5l0 -10zm-10 10l0 -10 10 0 0 10 -10 0zm0 0c-3,0 -5,-2 -5,-5 0,-3 2,-5 5,-5l0 10zm-29 -10c3,0 5,2 5,5 0,3 -2,5 -5,5l0 -10zm-10 10l0 -10 10 0 0 10 -10 0zm0 0c-3,0 -5,-2 -5,-5 0,-3 2,-5 5,-5l0 10zm-29 -10c3,0 5,2 5,5 0,3 -2,5 -5,5l0 -10zm-10 10l0 -10 10 0 0 10 -10 0zm0 0c-3,0 -5,-2 -5,-5 0,-3 2,-5 5,-5l0 10zm-29 -10c3,0 5,2 5,5 0,3 -2,5 -5,5l0 -10zm-10 10l0 -10 10 0 0 10 -10 0zm0 0c-3,0 -5,-2 -5,-5 0,-3 2,-5 5,-5l0 10zm-29 -10c3,0 5,2 5,5 0,3 -2,5 -5,5l0 -10zm-10 10l0 -10 10 0 0 10 -10 0zm0 0c-3,0 -5,-2 -5,-5 0,-3 2,-5 5,-5l0 10zm-29 -10c3,0 5,2 5,5 0,3 -2,5 -5,5l0 -10zm-10 10l0 -10 10 0 0 10 -10 0zm0 0c-3,0 -5,-2 -5,-5 0,-3 2,-5 5,-5l0 10zm-29 -10c3,0 5,2 5,5 0,3 -2,5 -5,5l0 -10zm-10 10l0 -10 10 0 0 10 -10 0zm0 0c-3,0 -5,-2 -5,-5 0,-3 2,-5 5,-5l0 10zm-29 -10c3,0 5,2 5,5 0,3 -2,5 -5,5l0 -10zm-10 10l0 -10 10 0 0 10 -10 0zm0 0c-3,0 -5,-2 -5,-5 0,-3 2,-5 5,-5l0 10zm-29 -10c3,0 5,2 5,5 0,3 -2,5 -5,5l0 -10zm-10 10l0 -10 10 0 0 10 -10 0zm0 0c-3,0 -5,-2 -5,-5 0,-3 2,-5 5,-5l0 10zm-29 -10c3,0 5,2 5,5 0,3 -2,5 -5,5l0 -10zm-10 10l0 -10 10 0 0 10 -10 0zm0 0c-3,0 -5,-2 -5,-5 0,-3 2,-5 5,-5l0 10zm-29 -10c3,0 5,2 5,5 0,3 -2,5 -5,5l0 -10zm-10 10l0 -10 10 0 0 10 -10 0zm0 0c-3,0 -5,-2 -5,-5 0,-3 2,-5 5,-5l0 10zm-29 -10c3,0 5,2 5,5 0,3 -2,5 -5,5l0 -10zm-10 10l0 -10 10 0 0 10 -10 0zm0 0c-3,0 -5,-2 -5,-5 0,-3 2,-5 5,-5l0 10zm-29 -10c3,0 5,2 5,5 0,3 -2,5 -5,5l0 -10zm-10 10l0 -10 10 0 0 10 -10 0zm0 0c-3,0 -5,-2 -5,-5 0,-3 2,-5 5,-5l0 10zm-29 -10c3,0 5,2 5,5 0,3 -2,5 -5,5l0 -10zm-10 10l0 -10 10 0 0 10 -10 0zm0 0c-3,0 -5,-2 -5,-5 0,-3 2,-5 5,-5l0 10zm-29 -10c3,0 5,2 5,5 0,3 -2,5 -5,5l0 -10zm-10 10l0 -10 10 0 0 10 -10 0zm0 0c-3,0 -5,-2 -5,-5 0,-3 2,-5 5,-5l0 10zm-29 -10c3,0 5,2 5,5 0,3 -2,5 -5,5l0 -10zm-10 10l0 -10 10 0 0 10 -10 0zm0 0c-3,0 -5,-2 -5,-5 0,-3 2,-5 5,-5l0 10zm-29 -10c3,0 5,2 5,5 0,3 -2,5 -5,5l0 -10zm-10 10l0 -10 10 0 0 10 -10 0zm0 0c-3,0 -5,-2 -5,-5 0,-3 2,-5 5,-5l0 10zm-29 -10c3,0 5,2 5,5 0,3 -2,5 -5,5l0 -10zm-10 10l0 -10 10 0 0 10 -10 0zm0 0c-3,0 -5,-2 -5,-5 0,-3 2,-5 5,-5l0 10zm-29 -10c3,0 5,2 5,5 0,3 -2,5 -5,5l0 -10zm-10 10l0 -10 10 0 0 10 -10 0zm0 0c-3,0 -5,-2 -5,-5 0,-3 2,-5 5,-5l0 10zm-29 -10c3,0 5,2 5,5 0,3 -2,5 -5,5l0 -10zm-10 10l0 -10 10 0 0 10 -10 0zm0 0c-3,0 -5,-2 -5,-5 0,-3 2,-5 5,-5l0 10zm-29 -10c3,0 5,2 5,5 0,3 -2,5 -5,5l0 -10zm-10 10l0 -10 10 0 0 10 -10 0zm0 0c-3,0 -5,-2 -5,-5 0,-3 2,-5 5,-5l0 10zm-29 -10c3,0 5,2 5,5 0,3 -2,5 -5,5l0 -10zm-10 10l0 -10 10 0 0 10 -10 0zm0 0c-3,0 -5,-2 -5,-5 0,-3 2,-5 5,-5l0 10zm-29 -10c3,0 5,2 5,5 0,3 -2,5 -5,5l0 -10zm-10 10l0 -10 10 0 0 10 -10 0zm0 0c-3,0 -5,-2 -5,-5 0,-3 2,-5 5,-5l0 10z"></path> </g> </g> <g> <g> <path class="fil5" d="M1731 30c0,-3 2,-5 5,-5 3,0 5,2 5,5l-10 0zm10 10l-10 0 0 -10 10 0 0 10zm0 0c0,3 -2,5 -5,5 -3,0 -5,-2 -5,-5l10 0zm-10 29c0,-3 2,-5 5,-5 3,0 5,2 5,5l-10 0zm10 10l-10 0 0 -10 10 0 0 10zm0 0c0,3 -2,5 -5,5 -3,0 -5,-2 -5,-5l10 0zm-10 29c0,-3 2,-5 5,-5 3,0 5,2 5,5l-10 0zm10 10l-10 0 0 -10 10 0 0 10zm0 0c0,3 -2,5 -5,5 -3,0 -5,-2 -5,-5l10 0zm-10 29c0,-3 2,-5 5,-5 3,0 5,2 5,5l-10 0zm10 10l-10 0 0 -10 10 0 0 10zm0 0c0,3 -2,5 -5,5 -3,0 -5,-2 -5,-5l10 0zm-10 29c0,-3 2,-5 5,-5 3,0 5,2 5,5l-10 0zm10 10l-10 0 0 -10 10 0 0 10zm0 0c0,3 -2,5 -5,5 -3,0 -5,-2 -5,-5l10 0zm-10 29c0,-3 2,-5 5,-5 3,0 5,2 5,5l-10 0zm10 10l-10 0 0 -10 10 0 0 10zm0 0c0,3 -2,5 -5,5 -3,0 -5,-2 -5,-5l10 0zm-10 29c0,-3 2,-5 5,-5 3,0 5,2 5,5l-10 0zm10 10l-10 0 0 -10 10 0 0 10zm0 0c0,3 -2,5 -5,5 -3,0 -5,-2 -5,-5l10 0zm-10 29c0,-3 2,-5 5,-5 3,0 5,2 5,5l-10 0zm10 10l-10 0 0 -10 10 0 0 10zm0 0c0,3 -2,5 -5,5 -3,0 -5,-2 -5,-5l10 0zm-10 29c0,-3 2,-5 5,-5 3,0 5,2 5,5l-10 0zm10 10l-10 0 0 -10 10 0 0 10zm0 0c0,3 -2,5 -5,5 -3,0 -5,-2 -5,-5l10 0zm-10 29c0,-3 2,-5 5,-5 3,0 5,2 5,5l-10 0zm10 10l-10 0 0 -10 10 0 0 10zm0 0c0,3 -2,5 -5,5 -3,0 -5,-2 -5,-5l10 0zm-10 29c0,-3 2,-5 5,-5 3,0 5,2 5,5l-10 0zm10 10l-10 0 0 -10 10 0 0 10zm0 0c0,3 -2,5 -5,5 -3,0 -5,-2 -5,-5l10 0zm-10 29c0,-3 2,-5 5,-5 3,0 5,2 5,5l-10 0zm10 10l-10 0 0 -10 10 0 0 10zm0 0c0,3 -2,5 -5,5 -3,0 -5,-2 -5,-5l10 0zm-10 29c0,-3 2,-5 5,-5 3,0 5,2 5,5l-10 0zm10 10l-10 0 0 -10 10 0 0 10zm0 0c0,3 -2,5 -5,5 -3,0 -5,-2 -5,-5l10 0zm-10 29c0,-3 2,-5 5,-5 3,0 5,2 5,5l-10 0zm10 10l-10 0 0 -10 10 0 0 10zm0 0c0,3 -2,5 -5,5 -3,0 -5,-2 -5,-5l10 0zm-10 29c0,-3 2,-5 5,-5 3,0 5,2 5,5l-10 0zm10 10l-10 0 0 -10 10 0 0 10zm0 0c0,3 -2,5 -5,5 -3,0 -5,-2 -5,-5l10 0zm-10 29c0,-3 2,-5 5,-5 3,0 5,2 5,5l-10 0zm10 10l-10 0 0 -10 10 0 0 10zm0 0c0,3 -2,5 -5,5 -3,0 -5,-2 -5,-5l10 0zm-10 29c0,-3 2,-5 5,-5 3,0 5,2 5,5l-10 0zm10 10l-10 0 0 -10 10 0 0 10zm0 0c0,3 -2,5 -5,5 -3,0 -5,-2 -5,-5l10 0z"></path> </g> </g> <g transform="matrix(0.747436 0 0 1 306.913 -3683.54)"> <text x="2000" y="4001" class="fil1 fnt2">Plan: S/.29.90</text> </g> <g transform="matrix(0.747436 0 0 1 306.913 -3683.54)"> <text x="2000" y="4119" class="fil1 fnt2">Envío: S/.10.00 </text> </g> <g transform="matrix(0.747436 0 0 1 306.913 -3683.54)"> <text x="2000" y="4237" class="fil1 fnt2">Total: S/.39.90</text> </g> <g> <g> <path class="fil6" d="M3126 521l0 -43 14 0 2 -17 -17 0 0 -9c0,-3 0,-4 1,-5 0,0 0,-1 1,-2 1,-2 4,-3 8,-3l8 0 0 -15c-4,-1 -8,-1 -13,-1 -9,0 -15,3 -19,10 -2,4 -3,8 -3,12l0 13 -14 0 0 17 14 0 0 43 17 0zm-7 42c-12,0 -23,-2 -34,-7 -11,-5 -20,-11 -29,-19 -9,-8 -15,-18 -19,-29 -5,-11 -7,-22 -7,-34 0,-12 2,-23 7,-34 5,-11 11,-20 19,-29 8,-8 18,-15 29,-19 11,-5 22,-7 34,-7 12,0 23,2 34,7 11,4 20,11 29,19 8,9 15,18 19,29 5,11 7,22 7,34 0,12 -2,23 -7,34 -4,11 -11,20 -19,29 -9,9 -18,15 -29,19 -11,4 -22,7 -34,7z"></path> <path class="fil7" d="M3344 563c-12,0 -23,-2 -34,-7 -11,-5 -20,-11 -29,-19 -9,-8 -15,-18 -19,-29 -4,-11 -7,-22 -7,-34 0,-12 2,-23 7,-34 5,-11 11,-20 19,-29 8,-8 18,-15 29,-19 11,-5 22,-7 34,-7 12,0 23,2 34,7 11,4 20,11 29,19 8,9 15,18 19,29 2,4 3,9 4,13l0 41c-1,5 -3,9 -4,13 -5,11 -11,20 -19,29 -9,9 -18,15 -29,19 -11,4 -22,7 -34,7zm0 -133c-4,0 -7,0 -9,0 -2,0 -4,0 -5,0 -1,0 -3,0 -4,0 -5,0 -8,1 -11,2 -3,1 -6,3 -8,5 -2,2 -4,5 -5,8 -1,3 -2,6 -2,11 0,2 0,3 0,4 0,1 0,3 0,5 0,2 0,5 0,9 0,4 0,7 0,9 0,2 0,4 0,5 0,1 0,3 0,4 0,5 1,8 2,11 1,3 3,6 5,8 2,2 5,4 8,5 3,1 6,2 11,2 2,0 3,0 4,0 1,0 3,0 5,0 2,0 5,0 9,0 4,0 7,0 9,0 2,0 4,0 5,0 1,0 3,0 4,0 5,0 8,-1 11,-2 3,-1 6,-3 8,-5 2,-2 4,-5 5,-8 1,-3 2,-6 2,-11 0,-2 0,-3 0,-4 0,-1 0,-3 0,-5 0,-2 0,-5 0,-9 0,-4 0,-7 0,-9 0,-2 0,-4 0,-5 0,-1 0,-3 0,-4 0,-5 -1,-8 -2,-11 -1,-3 -3,-6 -5,-8 -2,-2 -5,-4 -8,-5 -3,-1 -6,-2 -11,-2 -2,0 -3,0 -4,0 -1,0 -3,0 -5,0 -2,0 -5,0 -9,0zm-4 8c1,0 2,0 3,0 1,0 1,0 2,0 4,0 7,0 9,0 2,0 4,0 5,0 1,0 3,0 4,0 4,0 7,1 8,2 2,1 4,2 5,3 2,2 3,3 3,5 1,1 1,4 2,8 0,2 0,3 0,4 0,1 0,3 0,5 0,2 0,5 0,9 0,4 0,7 0,9 0,2 0,4 0,5 0,1 0,3 0,4 0,4 -1,7 -2,8 -1,2 -2,4 -3,5 -1,2 -3,3 -5,3 -1,1 -4,1 -8,2 -2,0 -3,0 -4,0 -1,0 -3,0 -5,0 -2,0 -5,0 -9,0 -4,0 -7,0 -9,0 -2,0 -4,0 -5,0 -1,0 -3,0 -4,0 -4,0 -7,-1 -8,-2 -2,-1 -4,-2 -5,-3 -2,-2 -3,-3 -3,-5 -1,-1 -1,-4 -2,-8 0,-2 0,-3 0,-4 0,-1 0,-3 0,-5 0,-2 0,-5 0,-9 0,-4 0,-7 0,-9 0,-2 0,-4 0,-5 0,-1 0,-3 0,-4 0,-4 1,-7 2,-8 1,-2 2,-4 3,-5 2,-2 3,-3 5,-3 1,-1 4,-1 8,-2 1,0 3,0 4,0 1,0 2,0 4,0 2,0 4,0 7,0zm28 8c-2,0 -3,1 -4,2 -1,1 -2,2 -2,4 0,2 1,3 2,4 1,1 2,2 4,2 1,0 3,-1 4,-2 1,-1 2,-2 2,-4 0,-2 -1,-3 -2,-4 -1,-1 -2,-2 -4,-2zm-24 6c-6,0 -12,2 -16,7 -5,5 -7,10 -7,16 0,6 2,12 7,16 5,4 10,7 16,7 6,0 12,-2 16,-7 4,-5 7,-10 7,-16 0,-6 -2,-12 -7,-16 -5,-5 -10,-7 -16,-7zm0 8c4,0 8,2 11,5 3,3 4,6 4,11 0,4 -2,8 -4,11 -3,3 -6,4 -11,4 -4,0 -8,-2 -11,-4 -3,-3 -4,-7 -4,-11 0,-4 1,-8 4,-11 3,-3 7,-5 11,-5z"></path> </g> <g transform="matrix(0.747436 0 0 1 1641.92 -3368.39)"> <text x="2000" y="4001" class="fil1 fnt2">Fotos</text> </g> </g> </g> </svg> 