<?xml version="1.0" encoding="UTF-8"?> <svg xmlns="http://www.w3.org/2000/svg" xmlns:xlink="http://www.w3.org/1999/xlink" xml:space="preserve" width="400px" height="66px" version="1.1" style="shape-rendering:geometricPrecision; text-rendering:geometricPrecision; image-rendering:optimizeQuality; fill-rule:evenodd; clip-rule:evenodd" viewBox="0 0 4146 683"> <defs> <style type="text/css"> .str1 {stroke:#6E4D8B;stroke-width:5} .str0 {stroke:#0AA5B1;stroke-width:10;stroke-dasharray:19.200000 9.600000} .fil5 {fill:#8A61A7} .fil8 {fill:black} .fil9 {fill:#017187} .fil1 {fill:#017187} .fil4 {fill:#393A3D} .fil2 {fill:#9454C9} .fil0 {fill:white} .fil3 {fill:#0AA5B1;fill-rule:nonzero} .fil6 {fill:#3B5998;fill-rule:nonzero} .fil7 {fill:url(#id0);fill-rule:nonzero} .fnt7 {font-weight:normal;font-size:75px;font-family:'Bahnschrift'} .fnt6 {font-weight:normal;font-size:91px;font-family:'Bahnschrift'} .fnt3 {font-weight:normal;font-size:97px;font-family:'Arial'} .fnt4 {font-weight:normal;font-size:98px;font-family:'Bahnschrift'} .fnt5 {font-weight:normal;font-size:108px;font-family:'Arial'} .fnt2 {font-weight:bold;font-size:155px;font-family:'Arial'} .fnt1 {font-weight:normal;font-size:253px;font-family:'Arial Rounded MT Bold'} .fnt9 {font-weight:normal;font-size:253px;font-family:'Bahnschrift'} .fnt0 {font-weight:normal;font-size:427px;font-family:'Arial Rounded MT Bold'} .fnt8 {font-weight:normal;font-size:427px;font-family:'Bahnschrift'} </style> <linearGradient id="id0" gradientUnits="objectBoundingBox" x1="140.784%" y1="13.8641%" x2="16.0546%" y2="86.1369%"> <stop offset="0" style="stop-opacity:1; stop-color:#A52AA4"></stop> <stop offset="0.156863" style="stop-opacity:1; stop-color:#D16C59"></stop> <stop offset="0.321569" style="stop-opacity:1; stop-color:#A52AA4"></stop> <stop offset="0.521569" style="stop-opacity:1; stop-color:#F1423A"></stop> <stop offset="1" style="stop-opacity:1; stop-color:#FDAE0E"></stop> </linearGradient> </defs> <g id="Capa_x0020_1"> <metadata id="CorelCorpID_0Corel-Layer"></metadata> <rect class="fil0 str0" x="5" y="5" width="2314" height="673"></rect> <rect class="fil0 str0" x="2319" y="5" width="1822" height="673"></rect> <g transform="matrix(1.17588 0 0 1 -1971.4 5249.25)"> <text x="1746" y="-4695" id="GB" class="fil1 fnt0">45</text> </g> <g transform="matrix(1.36939 0 0 1 -2057.79 5137.95)"> <text x="2000" y="-4695" class="fil1 fnt1">GB</text> </g> <g id="_2170391046496"> <g transform="matrix(1.13325 0 0 1 969.025 4881.59)"> <text x="1368" y="-4695" id="En_x0020_alta_x0020_Velocidad_x0020_Regular" class="fil2 fnt2">TODO ILIMITADO</text> </g> <g transform="matrix(1.2623 0 0 1 702.718 5017.64)"> <text x="1367" y="-4695" class="fil1 fnt3">INTERNET, Llamadas y SMS</text> </g> </g> <g id="_2170391048160"> <g> <path class="fil3" d="M4045 353c3,0 5,2 5,5 0,3 -2,5 -5,5l0 -10zm-10 10l0 -10 10 0 0 10 -10 0zm0 0c-3,0 -5,-2 -5,-5 0,-3 2,-5 5,-5l0 10zm-29 -10c3,0 5,2 5,5 0,3 -2,5 -5,5l0 -10zm-10 10l0 -10 10 0 0 10 -10 0zm0 0c-3,0 -5,-2 -5,-5 0,-3 2,-5 5,-5l0 10zm-29 -10c3,0 5,2 5,5 0,3 -2,5 -5,5l0 -10zm-10 10l0 -10 10 0 0 10 -10 0zm0 0c-3,0 -5,-2 -5,-5 0,-3 2,-5 5,-5l0 10zm-29 -10c3,0 5,2 5,5 0,3 -2,5 -5,5l0 -10zm-10 10l0 -10 10 0 0 10 -10 0zm0 0c-3,0 -5,-2 -5,-5 0,-3 2,-5 5,-5l0 10zm-29 -10c3,0 5,2 5,5 0,3 -2,5 -5,5l0 -10zm-10 10l0 -10 10 0 0 10 -10 0zm0 0c-3,0 -5,-2 -5,-5 0,-3 2,-5 5,-5l0 10zm-29 -10c3,0 5,2 5,5 0,3 -2,5 -5,5l0 -10zm-10 10l0 -10 10 0 0 10 -10 0zm0 0c-3,0 -5,-2 -5,-5 0,-3 2,-5 5,-5l0 10zm-29 -10c3,0 5,2 5,5 0,3 -2,5 -5,5l0 -10zm-10 10l0 -10 10 0 0 10 -10 0zm0 0c-3,0 -5,-2 -5,-5 0,-3 2,-5 5,-5l0 10zm-29 -10c3,0 5,2 5,5 0,3 -2,5 -5,5l0 -10zm-10 10l0 -10 10 0 0 10 -10 0zm0 0c-3,0 -5,-2 -5,-5 0,-3 2,-5 5,-5l0 10zm-29 -10c3,0 5,2 5,5 0,3 -2,5 -5,5l0 -10zm-10 10l0 -10 10 0 0 10 -10 0zm0 0c-3,0 -5,-2 -5,-5 0,-3 2,-5 5,-5l0 10zm-29 -10c3,0 5,2 5,5 0,3 -2,5 -5,5l0 -10zm-10 10l0 -10 10 0 0 10 -10 0zm0 0c-3,0 -5,-2 -5,-5 0,-3 2,-5 5,-5l0 10zm-29 -10c3,0 5,2 5,5 0,3 -2,5 -5,5l0 -10zm-10 10l0 -10 10 0 0 10 -10 0zm0 0c-3,0 -5,-2 -5,-5 0,-3 2,-5 5,-5l0 10zm-29 -10c3,0 5,2 5,5 0,3 -2,5 -5,5l0 -10zm-10 10l0 -10 10 0 0 10 -10 0zm0 0c-3,0 -5,-2 -5,-5 0,-3 2,-5 5,-5l0 10zm-29 -10c3,0 5,2 5,5 0,3 -2,5 -5,5l0 -10zm-10 10l0 -10 10 0 0 10 -10 0zm0 0c-3,0 -5,-2 -5,-5 0,-3 2,-5 5,-5l0 10zm-29 -10c3,0 5,2 5,5 0,3 -2,5 -5,5l0 -10zm-10 10l0 -10 10 0 0 10 -10 0zm0 0c-3,0 -5,-2 -5,-5 0,-3 2,-5 5,-5l0 10zm-29 -10c3,0 5,2 5,5 0,3 -2,5 -5,5l0 -10zm-10 10l0 -10 10 0 0 10 -10 0zm0 0c-3,0 -5,-2 -5,-5 0,-3 2,-5 5,-5l0 10zm-29 -10c3,0 5,2 5,5 0,3 -2,5 -5,5l0 -10zm-10 10l0 -10 10 0 0 10 -10 0zm0 0c-3,0 -5,-2 -5,-5 0,-3 2,-5 5,-5l0 10zm-29 -10c3,0 5,2 5,5 0,3 -2,5 -5,5l0 -10zm-10 10l0 -10 10 0 0 10 -10 0zm0 0c-3,0 -5,-2 -5,-5 0,-3 2,-5 5,-5l0 10zm-29 -10c3,0 5,2 5,5 0,3 -2,5 -5,5l0 -10zm-10 10l0 -10 10 0 0 10 -10 0zm0 0c-3,0 -5,-2 -5,-5 0,-3 2,-5 5,-5l0 10zm-29 -10c3,0 5,2 5,5 0,3 -2,5 -5,5l0 -10zm-10 10l0 -10 10 0 0 10 -10 0zm0 0c-3,0 -5,-2 -5,-5 0,-3 2,-5 5,-5l0 10zm-29 -10c3,0 5,2 5,5 0,3 -2,5 -5,5l0 -10zm-10 10l0 -10 10 0 0 10 -10 0zm0 0c-3,0 -5,-2 -5,-5 0,-3 2,-5 5,-5l0 10zm-29 -10c3,0 5,2 5,5 0,3 -2,5 -5,5l0 -10zm-10 10l0 -10 10 0 0 10 -10 0zm0 0c-3,0 -5,-2 -5,-5 0,-3 2,-5 5,-5l0 10zm-29 -10c3,0 5,2 5,5 0,3 -2,5 -5,5l0 -10zm-10 10l0 -10 10 0 0 10 -10 0zm0 0c-3,0 -5,-2 -5,-5 0,-3 2,-5 5,-5l0 10zm-29 -10c3,0 5,2 5,5 0,3 -2,5 -5,5l0 -10zm-10 10l0 -10 10 0 0 10 -10 0zm0 0c-3,0 -5,-2 -5,-5 0,-3 2,-5 5,-5l0 10zm-29 -10c3,0 5,2 5,5 0,3 -2,5 -5,5l0 -10zm-10 10l0 -10 10 0 0 10 -10 0zm0 0c-3,0 -5,-2 -5,-5 0,-3 2,-5 5,-5l0 10zm-29 -10c3,0 5,2 5,5 0,3 -2,5 -5,5l0 -10zm-10 10l0 -10 10 0 0 10 -10 0zm0 0c-3,0 -5,-2 -5,-5 0,-3 2,-5 5,-5l0 10zm-29 -10c3,0 5,2 5,5 0,3 -2,5 -5,5l0 -10zm-10 10l0 -10 10 0 0 10 -10 0zm0 0c-3,0 -5,-2 -5,-5 0,-3 2,-5 5,-5l0 10zm-29 -10c3,0 5,2 5,5 0,3 -2,5 -5,5l0 -10zm-10 10l0 -10 10 0 0 10 -10 0zm0 0c-3,0 -5,-2 -5,-5 0,-3 2,-5 5,-5l0 10zm-29 -10c3,0 5,2 5,5 0,3 -2,5 -5,5l0 -10zm-10 10l0 -10 10 0 0 10 -10 0zm0 0c-3,0 -5,-2 -5,-5 0,-3 2,-5 5,-5l0 10zm-29 -10c3,0 5,2 5,5 0,3 -2,5 -5,5l0 -10zm-10 10l0 -10 10 0 0 10 -10 0zm0 0c-3,0 -5,-2 -5,-5 0,-3 2,-5 5,-5l0 10zm-29 -10c3,0 5,2 5,5 0,3 -2,5 -5,5l0 -10zm-10 10l0 -10 10 0 0 10 -10 0zm0 0c-3,0 -5,-2 -5,-5 0,-3 2,-5 5,-5l0 10zm-29 -10c3,0 5,2 5,5 0,3 -2,5 -5,5l0 -10zm-10 10l0 -10 10 0 0 10 -10 0zm0 0c-3,0 -5,-2 -5,-5 0,-3 2,-5 5,-5l0 10zm-29 -10c3,0 5,2 5,5 0,3 -2,5 -5,5l0 -10zm-10 10l0 -10 10 0 0 10 -10 0zm0 0c-3,0 -5,-2 -5,-5 0,-3 2,-5 5,-5l0 10zm-29 -10c3,0 5,2 5,5 0,3 -2,5 -5,5l0 -10zm-10 10l0 -10 10 0 0 10 -10 0zm0 0c-3,0 -5,-2 -5,-5 0,-3 2,-5 5,-5l0 10zm-29 -10c3,0 5,2 5,5 0,3 -2,5 -5,5l0 -10zm-10 10l0 -10 10 0 0 10 -10 0zm0 0c-3,0 -5,-2 -5,-5 0,-3 2,-5 5,-5l0 10zm-29 -10c3,0 5,2 5,5 0,3 -2,5 -5,5l0 -10zm-10 10l0 -10 10 0 0 10 -10 0zm0 0c-3,0 -5,-2 -5,-5 0,-3 2,-5 5,-5l0 10zm-29 -10c3,0 5,2 5,5 0,3 -2,5 -5,5l0 -10zm-10 10l0 -10 10 0 0 10 -10 0zm0 0c-3,0 -5,-2 -5,-5 0,-3 2,-5 5,-5l0 10zm-29 -10c3,0 5,2 5,5 0,3 -2,5 -5,5l0 -10zm-10 10l0 -10 10 0 0 10 -10 0zm0 0c-3,0 -5,-2 -5,-5 0,-3 2,-5 5,-5l0 10zm-29 -10c3,0 5,2 5,5 0,3 -2,5 -5,5l0 -10zm-10 10l0 -10 10 0 0 10 -10 0zm0 0c-3,0 -5,-2 -5,-5 0,-3 2,-5 5,-5l0 10zm-29 -10c3,0 5,2 5,5 0,3 -2,5 -5,5l0 -10zm-10 10l0 -10 10 0 0 10 -10 0zm0 0c-3,0 -5,-2 -5,-5 0,-3 2,-5 5,-5l0 10zm-29 -10c3,0 5,2 5,5 0,3 -2,5 -5,5l0 -10zm-10 10l0 -10 10 0 0 10 -10 0zm0 0c-3,0 -5,-2 -5,-5 0,-3 2,-5 5,-5l0 10zm-29 -10c3,0 5,2 5,5 0,3 -2,5 -5,5l0 -10zm-10 10l0 -10 10 0 0 10 -10 0zm0 0c-3,0 -5,-2 -5,-5 0,-3 2,-5 5,-5l0 10zm-29 -10c3,0 5,2 5,5 0,3 -2,5 -5,5l0 -10zm-10 10l0 -10 10 0 0 10 -10 0zm0 0c-3,0 -5,-2 -5,-5 0,-3 2,-5 5,-5l0 10zm-29 -10c3,0 5,2 5,5 0,3 -2,5 -5,5l0 -10zm-10 10l0 -10 10 0 0 10 -10 0zm0 0c-3,0 -5,-2 -5,-5 0,-3 2,-5 5,-5l0 10z"></path> </g> </g> <g> <g> <path class="fil3" d="M1731 30c0,-3 2,-5 5,-5 3,0 5,2 5,5l-10 0zm10 10l-10 0 0 -10 10 0 0 10zm0 0c0,3 -2,5 -5,5 -3,0 -5,-2 -5,-5l10 0zm-10 29c0,-3 2,-5 5,-5 3,0 5,2 5,5l-10 0zm10 10l-10 0 0 -10 10 0 0 10zm0 0c0,3 -2,5 -5,5 -3,0 -5,-2 -5,-5l10 0zm-10 29c0,-3 2,-5 5,-5 3,0 5,2 5,5l-10 0zm10 10l-10 0 0 -10 10 0 0 10zm0 0c0,3 -2,5 -5,5 -3,0 -5,-2 -5,-5l10 0zm-10 29c0,-3 2,-5 5,-5 3,0 5,2 5,5l-10 0zm10 10l-10 0 0 -10 10 0 0 10zm0 0c0,3 -2,5 -5,5 -3,0 -5,-2 -5,-5l10 0zm-10 29c0,-3 2,-5 5,-5 3,0 5,2 5,5l-10 0zm10 10l-10 0 0 -10 10 0 0 10zm0 0c0,3 -2,5 -5,5 -3,0 -5,-2 -5,-5l10 0zm-10 29c0,-3 2,-5 5,-5 3,0 5,2 5,5l-10 0zm10 10l-10 0 0 -10 10 0 0 10zm0 0c0,3 -2,5 -5,5 -3,0 -5,-2 -5,-5l10 0zm-10 29c0,-3 2,-5 5,-5 3,0 5,2 5,5l-10 0zm10 10l-10 0 0 -10 10 0 0 10zm0 0c0,3 -2,5 -5,5 -3,0 -5,-2 -5,-5l10 0zm-10 29c0,-3 2,-5 5,-5 3,0 5,2 5,5l-10 0zm10 10l-10 0 0 -10 10 0 0 10zm0 0c0,3 -2,5 -5,5 -3,0 -5,-2 -5,-5l10 0zm-10 29c0,-3 2,-5 5,-5 3,0 5,2 5,5l-10 0zm10 10l-10 0 0 -10 10 0 0 10zm0 0c0,3 -2,5 -5,5 -3,0 -5,-2 -5,-5l10 0zm-10 29c0,-3 2,-5 5,-5 3,0 5,2 5,5l-10 0zm10 10l-10 0 0 -10 10 0 0 10zm0 0c0,3 -2,5 -5,5 -3,0 -5,-2 -5,-5l10 0zm-10 29c0,-3 2,-5 5,-5 3,0 5,2 5,5l-10 0zm10 10l-10 0 0 -10 10 0 0 10zm0 0c0,3 -2,5 -5,5 -3,0 -5,-2 -5,-5l10 0zm-10 29c0,-3 2,-5 5,-5 3,0 5,2 5,5l-10 0zm10 10l-10 0 0 -10 10 0 0 10zm0 0c0,3 -2,5 -5,5 -3,0 -5,-2 -5,-5l10 0zm-10 29c0,-3 2,-5 5,-5 3,0 5,2 5,5l-10 0zm10 10l-10 0 0 -10 10 0 0 10zm0 0c0,3 -2,5 -5,5 -3,0 -5,-2 -5,-5l10 0zm-10 29c0,-3 2,-5 5,-5 3,0 5,2 5,5l-10 0zm10 10l-10 0 0 -10 10 0 0 10zm0 0c0,3 -2,5 -5,5 -3,0 -5,-2 -5,-5l10 0zm-10 29c0,-3 2,-5 5,-5 3,0 5,2 5,5l-10 0zm10 10l-10 0 0 -10 10 0 0 10zm0 0c0,3 -2,5 -5,5 -3,0 -5,-2 -5,-5l10 0zm-10 29c0,-3 2,-5 5,-5 3,0 5,2 5,5l-10 0zm10 10l-10 0 0 -10 10 0 0 10zm0 0c0,3 -2,5 -5,5 -3,0 -5,-2 -5,-5l10 0zm-10 29c0,-3 2,-5 5,-5 3,0 5,2 5,5l-10 0zm10 10l-10 0 0 -10 10 0 0 10zm0 0c0,3 -2,5 -5,5 -3,0 -5,-2 -5,-5l10 0z"></path> </g> </g> <g transform="matrix(0.747436 0 0 1 306.913 4957.22)"> <text x="2000" y="-4695" class="fil1 fnt4">Plan: S/.65.90</text> </g> <g transform="matrix(0.747436 0 0 1 306.913 4957.22)"> <text x="2000" y="-4577" class="fil1 fnt4">Envío: Gratis. </text> </g> <g transform="matrix(0.747436 0 0 1 306.913 4957.22)"> <text x="2000" y="-4459" class="fil1 fnt4">Total: S/.65.90</text> </g> <text x="103" y="175" id="Bono_x0020_Línea_x0020_Nueva" class="fil4 fnt5">ilimitado 65.90</text> <text x="800" y="175" id="Bono_x0020_Línea_x0020_Nueva" class="fil5 fnt5"> - PORTABILIDAD</text> <g> <g> <g id="_2170391056160"> <path class="fil6" d="M2882 521l0 -43 14 0 2 -17 -17 0 0 -9c0,-3 0,-4 0,-5 0,0 0,-1 1,-2 1,-2 4,-3 8,-3l8 0 0 -15c-4,-1 -8,-1 -13,-1 -9,0 -15,3 -19,10 -2,4 -3,8 -3,12l0 13 -14 0 0 17 14 0 0 43 17 0zm-7 42c-12,0 -23,-2 -34,-7 -11,-5 -20,-11 -29,-19 -9,-8 -15,-18 -19,-29 -4,-11 -7,-22 -7,-34 0,-12 2,-23 7,-34 5,-11 11,-20 19,-29 8,-8 18,-15 29,-19 11,-5 22,-7 34,-7 12,0 23,2 34,7 11,4 20,11 29,19 8,9 15,18 19,29 4,11 7,22 7,34 0,12 -2,23 -7,34 -5,11 -11,20 -19,29 -9,9 -18,15 -29,19 -11,4 -22,7 -34,7z"></path> <path class="fil7" d="M3100 563c-12,0 -23,-2 -34,-7 -11,-5 -20,-11 -29,-19 -8,-8 -15,-18 -19,-29 -5,-11 -7,-22 -7,-34 0,-12 2,-23 7,-34 4,-11 11,-20 19,-29 9,-8 18,-15 29,-19 11,-5 22,-7 34,-7 12,0 23,2 34,7 11,4 20,11 29,19 9,9 15,18 19,29 2,4 3,9 4,13l0 41c-1,5 -3,9 -4,13 -5,11 -11,20 -19,29 -8,9 -18,15 -29,19 -11,4 -22,7 -34,7zm0 -133c-4,0 -7,0 -9,0 -2,0 -4,0 -5,0 -1,0 -3,0 -4,0 -5,0 -8,1 -11,2 -3,1 -6,3 -8,5 -2,2 -4,5 -5,8 -1,3 -2,6 -2,11 0,2 0,3 0,4 0,1 0,3 0,5 0,2 0,5 0,9 0,4 0,7 0,9 0,2 0,4 0,5 0,1 0,3 0,4 0,5 1,8 2,11 1,3 3,6 5,8 2,2 5,4 8,5 3,1 6,2 11,2 2,0 3,0 4,0 1,0 3,0 5,0 2,0 5,0 9,0 4,0 7,0 9,0 2,0 4,0 5,0 1,0 3,0 4,0 5,0 8,-1 11,-2 3,-1 6,-3 8,-5 2,-2 4,-5 5,-8 1,-3 2,-6 2,-11 0,-2 0,-3 0,-4 0,-1 0,-3 0,-5 0,-2 0,-5 0,-9 0,-4 0,-7 0,-9 0,-2 0,-4 0,-5 0,-1 0,-3 0,-4 0,-5 -1,-8 -2,-11 -1,-3 -3,-6 -5,-8 -2,-2 -5,-4 -8,-5 -3,-1 -6,-2 -11,-2 -2,0 -3,0 -4,0 -1,0 -3,0 -5,0 -2,0 -5,0 -9,0zm-4 8c1,0 2,0 3,0 1,0 1,0 2,0 4,0 7,0 9,0 2,0 4,0 5,0 1,0 3,0 4,0 4,0 7,1 8,2 2,1 4,2 5,3 2,2 3,3 3,5 1,1 1,4 2,8 0,2 0,3 0,4 0,1 0,3 0,5 0,2 0,5 0,9 0,4 0,7 0,9 0,2 0,4 0,5 0,1 0,3 0,4 0,4 -1,7 -2,8 -1,2 -2,4 -3,5 -2,2 -3,3 -5,3 -1,1 -4,1 -8,2 -2,0 -3,0 -4,0 -1,0 -3,0 -5,0 -2,0 -5,0 -9,0 -4,0 -7,0 -9,0 -2,0 -4,0 -5,0 -1,0 -3,0 -4,0 -4,0 -7,-1 -8,-2 -2,-1 -4,-2 -5,-3 -2,-2 -3,-3 -3,-5 -1,-1 -1,-4 -2,-8 0,-2 0,-3 0,-4 0,-1 0,-3 0,-5 0,-2 0,-5 0,-9 0,-4 0,-7 0,-9 0,-2 0,-4 0,-5 0,-1 0,-3 0,-4 0,-4 1,-7 2,-8 1,-2 2,-4 3,-5 2,-2 3,-3 5,-3 1,-1 4,-1 8,-2 1,0 3,0 4,0 1,0 3,0 4,0 2,0 4,0 7,0zm28 8c-2,0 -3,1 -4,2 -1,1 -2,2 -2,4 0,2 1,3 2,4 1,1 2,2 4,2 2,0 3,-1 4,-2 1,-1 2,-2 2,-4 0,-2 -1,-3 -2,-4 -1,-1 -2,-2 -4,-2zm-24 6c-6,0 -12,2 -16,7 -4,5 -7,10 -7,16 0,6 2,12 7,16 5,4 10,7 16,7 6,0 12,-2 16,-7 5,-5 7,-10 7,-16 0,-6 -2,-12 -7,-16 -5,-5 -10,-7 -16,-7zm0 8c4,0 8,2 11,5 3,3 4,6 4,11 0,4 -1,8 -4,11 -3,3 -6,4 -11,4 -4,0 -8,-2 -11,-4 -3,-3 -4,-7 -4,-11 0,-4 2,-8 4,-11 3,-3 7,-5 11,-5z"></path> </g> <g transform="matrix(0.747436 0 0 1 1398.56 5327.25)"> <text x="2000" y="-4695" class="fil1 fnt4">Fotos</text> </g> </g> <g> <path class="fil8 str1" d="M3412 476c-10,0 -18,-3 -26,-9 -8,-6 -14,-15 -16,-26 -1,-3 -1,-5 -1,-8l-27 0 0 75 0 41c0,11 -7,20 -17,24 -3,1 -6,1 -9,1 -4,0 -8,-1 -11,-3 -7,-4 -12,-12 -12,-21 0,-14 11,-25 25,-25 3,0 5,0 8,1l0 -20 0 -7c-3,0 -5,-1 -8,-1 -15,0 -29,6 -40,18 -8,9 -12,20 -13,31 -1,15 5,29 15,40 2,2 3,3 5,4 9,7 20,11 32,11 3,0 5,0 8,-1 11,-2 21,-7 29,-15 10,-10 15,-23 15,-37l0 -61c5,4 10,7 15,9 9,4 18,6 27,6l0 -20 0 -7c0,0 0,0 0,0l0 0z"></path> <g transform="matrix(0.984016 0 0 1 1601.89 5153.66)"> <text x="1893" y="-4695" class="fil1 fnt6">30GB</text> </g> <g transform="matrix(0.984016 0 0 1 1601.89 5153.66)"> </g> <g transform="matrix(0.984016 0 0 1 1601.89 5153.66)"> </g> <g transform="matrix(0.984016 0 0 1 1601.89 5153.66)"> <text x="1891" y="-4602" class="fil9 fnt7">Extras</text> </g> <g transform="matrix(0.984016 0 0 1 1601.89 5153.66)"> <text x="1900" y="-4513" class="fil9 fnt7">TicTok</text> </g> </g> </g> <rect class="fil0 str0" x="5" y="5" width="2314" height="673"></rect> <rect class="fil0 str0" x="2319" y="5" width="1822" height="673"></rect> <g transform="matrix(1.17588 0 0 1 -1971.4 5249.25)"> <text x="1768" y="-4695" id="GB_0" class="fil1 fnt8">55</text> </g> <g transform="matrix(1.36939 0 0 1 -2057.79 5137.95)"> <text x="2000" y="-4695" class="fil1 fnt9">GB</text> </g> <g> <g transform="matrix(1.13325 0 0 1 969.025 4881.59)"> <text x="1368" y="-4695" id="En_x0020_alta_x0020_Velocidad_x0020_Regular_1" class="fil2 fnt2">TODO ILIMITADO</text> </g> <g transform="matrix(1.2623 0 0 1 702.718 5017.64)"> <text x="1367" y="-4695" class="fil1 fnt3">INTERNET, Llamadas y SMS</text> </g> </g> <g> <g> <path class="fil3" d="M4045 353c3,0 5,2 5,5 0,3 -2,5 -5,5l0 -10zm-10 10l0 -10 10 0 0 10 -10 0zm0 0c-3,0 -5,-2 -5,-5 0,-3 2,-5 5,-5l0 10zm-29 -10c3,0 5,2 5,5 0,3 -2,5 -5,5l0 -10zm-10 10l0 -10 10 0 0 10 -10 0zm0 0c-3,0 -5,-2 -5,-5 0,-3 2,-5 5,-5l0 10zm-29 -10c3,0 5,2 5,5 0,3 -2,5 -5,5l0 -10zm-10 10l0 -10 10 0 0 10 -10 0zm0 0c-3,0 -5,-2 -5,-5 0,-3 2,-5 5,-5l0 10zm-29 -10c3,0 5,2 5,5 0,3 -2,5 -5,5l0 -10zm-10 10l0 -10 10 0 0 10 -10 0zm0 0c-3,0 -5,-2 -5,-5 0,-3 2,-5 5,-5l0 10zm-29 -10c3,0 5,2 5,5 0,3 -2,5 -5,5l0 -10zm-10 10l0 -10 10 0 0 10 -10 0zm0 0c-3,0 -5,-2 -5,-5 0,-3 2,-5 5,-5l0 10zm-29 -10c3,0 5,2 5,5 0,3 -2,5 -5,5l0 -10zm-10 10l0 -10 10 0 0 10 -10 0zm0 0c-3,0 -5,-2 -5,-5 0,-3 2,-5 5,-5l0 10zm-29 -10c3,0 5,2 5,5 0,3 -2,5 -5,5l0 -10zm-10 10l0 -10 10 0 0 10 -10 0zm0 0c-3,0 -5,-2 -5,-5 0,-3 2,-5 5,-5l0 10zm-29 -10c3,0 5,2 5,5 0,3 -2,5 -5,5l0 -10zm-10 10l0 -10 10 0 0 10 -10 0zm0 0c-3,0 -5,-2 -5,-5 0,-3 2,-5 5,-5l0 10zm-29 -10c3,0 5,2 5,5 0,3 -2,5 -5,5l0 -10zm-10 10l0 -10 10 0 0 10 -10 0zm0 0c-3,0 -5,-2 -5,-5 0,-3 2,-5 5,-5l0 10zm-29 -10c3,0 5,2 5,5 0,3 -2,5 -5,5l0 -10zm-10 10l0 -10 10 0 0 10 -10 0zm0 0c-3,0 -5,-2 -5,-5 0,-3 2,-5 5,-5l0 10zm-29 -10c3,0 5,2 5,5 0,3 -2,5 -5,5l0 -10zm-10 10l0 -10 10 0 0 10 -10 0zm0 0c-3,0 -5,-2 -5,-5 0,-3 2,-5 5,-5l0 10zm-29 -10c3,0 5,2 5,5 0,3 -2,5 -5,5l0 -10zm-10 10l0 -10 10 0 0 10 -10 0zm0 0c-3,0 -5,-2 -5,-5 0,-3 2,-5 5,-5l0 10zm-29 -10c3,0 5,2 5,5 0,3 -2,5 -5,5l0 -10zm-10 10l0 -10 10 0 0 10 -10 0zm0 0c-3,0 -5,-2 -5,-5 0,-3 2,-5 5,-5l0 10zm-29 -10c3,0 5,2 5,5 0,3 -2,5 -5,5l0 -10zm-10 10l0 -10 10 0 0 10 -10 0zm0 0c-3,0 -5,-2 -5,-5 0,-3 2,-5 5,-5l0 10zm-29 -10c3,0 5,2 5,5 0,3 -2,5 -5,5l0 -10zm-10 10l0 -10 10 0 0 10 -10 0zm0 0c-3,0 -5,-2 -5,-5 0,-3 2,-5 5,-5l0 10zm-29 -10c3,0 5,2 5,5 0,3 -2,5 -5,5l0 -10zm-10 10l0 -10 10 0 0 10 -10 0zm0 0c-3,0 -5,-2 -5,-5 0,-3 2,-5 5,-5l0 10zm-29 -10c3,0 5,2 5,5 0,3 -2,5 -5,5l0 -10zm-10 10l0 -10 10 0 0 10 -10 0zm0 0c-3,0 -5,-2 -5,-5 0,-3 2,-5 5,-5l0 10zm-29 -10c3,0 5,2 5,5 0,3 -2,5 -5,5l0 -10zm-10 10l0 -10 10 0 0 10 -10 0zm0 0c-3,0 -5,-2 -5,-5 0,-3 2,-5 5,-5l0 10zm-29 -10c3,0 5,2 5,5 0,3 -2,5 -5,5l0 -10zm-10 10l0 -10 10 0 0 10 -10 0zm0 0c-3,0 -5,-2 -5,-5 0,-3 2,-5 5,-5l0 10zm-29 -10c3,0 5,2 5,5 0,3 -2,5 -5,5l0 -10zm-10 10l0 -10 10 0 0 10 -10 0zm0 0c-3,0 -5,-2 -5,-5 0,-3 2,-5 5,-5l0 10zm-29 -10c3,0 5,2 5,5 0,3 -2,5 -5,5l0 -10zm-10 10l0 -10 10 0 0 10 -10 0zm0 0c-3,0 -5,-2 -5,-5 0,-3 2,-5 5,-5l0 10zm-29 -10c3,0 5,2 5,5 0,3 -2,5 -5,5l0 -10zm-10 10l0 -10 10 0 0 10 -10 0zm0 0c-3,0 -5,-2 -5,-5 0,-3 2,-5 5,-5l0 10zm-29 -10c3,0 5,2 5,5 0,3 -2,5 -5,5l0 -10zm-10 10l0 -10 10 0 0 10 -10 0zm0 0c-3,0 -5,-2 -5,-5 0,-3 2,-5 5,-5l0 10zm-29 -10c3,0 5,2 5,5 0,3 -2,5 -5,5l0 -10zm-10 10l0 -10 10 0 0 10 -10 0zm0 0c-3,0 -5,-2 -5,-5 0,-3 2,-5 5,-5l0 10zm-29 -10c3,0 5,2 5,5 0,3 -2,5 -5,5l0 -10zm-10 10l0 -10 10 0 0 10 -10 0zm0 0c-3,0 -5,-2 -5,-5 0,-3 2,-5 5,-5l0 10zm-29 -10c3,0 5,2 5,5 0,3 -2,5 -5,5l0 -10zm-10 10l0 -10 10 0 0 10 -10 0zm0 0c-3,0 -5,-2 -5,-5 0,-3 2,-5 5,-5l0 10zm-29 -10c3,0 5,2 5,5 0,3 -2,5 -5,5l0 -10zm-10 10l0 -10 10 0 0 10 -10 0zm0 0c-3,0 -5,-2 -5,-5 0,-3 2,-5 5,-5l0 10zm-29 -10c3,0 5,2 5,5 0,3 -2,5 -5,5l0 -10zm-10 10l0 -10 10 0 0 10 -10 0zm0 0c-3,0 -5,-2 -5,-5 0,-3 2,-5 5,-5l0 10zm-29 -10c3,0 5,2 5,5 0,3 -2,5 -5,5l0 -10zm-10 10l0 -10 10 0 0 10 -10 0zm0 0c-3,0 -5,-2 -5,-5 0,-3 2,-5 5,-5l0 10zm-29 -10c3,0 5,2 5,5 0,3 -2,5 -5,5l0 -10zm-10 10l0 -10 10 0 0 10 -10 0zm0 0c-3,0 -5,-2 -5,-5 0,-3 2,-5 5,-5l0 10zm-29 -10c3,0 5,2 5,5 0,3 -2,5 -5,5l0 -10zm-10 10l0 -10 10 0 0 10 -10 0zm0 0c-3,0 -5,-2 -5,-5 0,-3 2,-5 5,-5l0 10zm-29 -10c3,0 5,2 5,5 0,3 -2,5 -5,5l0 -10zm-10 10l0 -10 10 0 0 10 -10 0zm0 0c-3,0 -5,-2 -5,-5 0,-3 2,-5 5,-5l0 10zm-29 -10c3,0 5,2 5,5 0,3 -2,5 -5,5l0 -10zm-10 10l0 -10 10 0 0 10 -10 0zm0 0c-3,0 -5,-2 -5,-5 0,-3 2,-5 5,-5l0 10zm-29 -10c3,0 5,2 5,5 0,3 -2,5 -5,5l0 -10zm-10 10l0 -10 10 0 0 10 -10 0zm0 0c-3,0 -5,-2 -5,-5 0,-3 2,-5 5,-5l0 10zm-29 -10c3,0 5,2 5,5 0,3 -2,5 -5,5l0 -10zm-10 10l0 -10 10 0 0 10 -10 0zm0 0c-3,0 -5,-2 -5,-5 0,-3 2,-5 5,-5l0 10zm-29 -10c3,0 5,2 5,5 0,3 -2,5 -5,5l0 -10zm-10 10l0 -10 10 0 0 10 -10 0zm0 0c-3,0 -5,-2 -5,-5 0,-3 2,-5 5,-5l0 10zm-29 -10c3,0 5,2 5,5 0,3 -2,5 -5,5l0 -10zm-10 10l0 -10 10 0 0 10 -10 0zm0 0c-3,0 -5,-2 -5,-5 0,-3 2,-5 5,-5l0 10zm-29 -10c3,0 5,2 5,5 0,3 -2,5 -5,5l0 -10zm-10 10l0 -10 10 0 0 10 -10 0zm0 0c-3,0 -5,-2 -5,-5 0,-3 2,-5 5,-5l0 10zm-29 -10c3,0 5,2 5,5 0,3 -2,5 -5,5l0 -10zm-10 10l0 -10 10 0 0 10 -10 0zm0 0c-3,0 -5,-2 -5,-5 0,-3 2,-5 5,-5l0 10zm-29 -10c3,0 5,2 5,5 0,3 -2,5 -5,5l0 -10zm-10 10l0 -10 10 0 0 10 -10 0zm0 0c-3,0 -5,-2 -5,-5 0,-3 2,-5 5,-5l0 10zm-29 -10c3,0 5,2 5,5 0,3 -2,5 -5,5l0 -10zm-10 10l0 -10 10 0 0 10 -10 0zm0 0c-3,0 -5,-2 -5,-5 0,-3 2,-5 5,-5l0 10zm-29 -10c3,0 5,2 5,5 0,3 -2,5 -5,5l0 -10zm-10 10l0 -10 10 0 0 10 -10 0zm0 0c-3,0 -5,-2 -5,-5 0,-3 2,-5 5,-5l0 10zm-29 -10c3,0 5,2 5,5 0,3 -2,5 -5,5l0 -10zm-10 10l0 -10 10 0 0 10 -10 0zm0 0c-3,0 -5,-2 -5,-5 0,-3 2,-5 5,-5l0 10z"></path> </g> </g> <g> <g> <path class="fil3" d="M1731 30c0,-3 2,-5 5,-5 3,0 5,2 5,5l-10 0zm10 10l-10 0 0 -10 10 0 0 10zm0 0c0,3 -2,5 -5,5 -3,0 -5,-2 -5,-5l10 0zm-10 29c0,-3 2,-5 5,-5 3,0 5,2 5,5l-10 0zm10 10l-10 0 0 -10 10 0 0 10zm0 0c0,3 -2,5 -5,5 -3,0 -5,-2 -5,-5l10 0zm-10 29c0,-3 2,-5 5,-5 3,0 5,2 5,5l-10 0zm10 10l-10 0 0 -10 10 0 0 10zm0 0c0,3 -2,5 -5,5 -3,0 -5,-2 -5,-5l10 0zm-10 29c0,-3 2,-5 5,-5 3,0 5,2 5,5l-10 0zm10 10l-10 0 0 -10 10 0 0 10zm0 0c0,3 -2,5 -5,5 -3,0 -5,-2 -5,-5l10 0zm-10 29c0,-3 2,-5 5,-5 3,0 5,2 5,5l-10 0zm10 10l-10 0 0 -10 10 0 0 10zm0 0c0,3 -2,5 -5,5 -3,0 -5,-2 -5,-5l10 0zm-10 29c0,-3 2,-5 5,-5 3,0 5,2 5,5l-10 0zm10 10l-10 0 0 -10 10 0 0 10zm0 0c0,3 -2,5 -5,5 -3,0 -5,-2 -5,-5l10 0zm-10 29c0,-3 2,-5 5,-5 3,0 5,2 5,5l-10 0zm10 10l-10 0 0 -10 10 0 0 10zm0 0c0,3 -2,5 -5,5 -3,0 -5,-2 -5,-5l10 0zm-10 29c0,-3 2,-5 5,-5 3,0 5,2 5,5l-10 0zm10 10l-10 0 0 -10 10 0 0 10zm0 0c0,3 -2,5 -5,5 -3,0 -5,-2 -5,-5l10 0zm-10 29c0,-3 2,-5 5,-5 3,0 5,2 5,5l-10 0zm10 10l-10 0 0 -10 10 0 0 10zm0 0c0,3 -2,5 -5,5 -3,0 -5,-2 -5,-5l10 0zm-10 29c0,-3 2,-5 5,-5 3,0 5,2 5,5l-10 0zm10 10l-10 0 0 -10 10 0 0 10zm0 0c0,3 -2,5 -5,5 -3,0 -5,-2 -5,-5l10 0zm-10 29c0,-3 2,-5 5,-5 3,0 5,2 5,5l-10 0zm10 10l-10 0 0 -10 10 0 0 10zm0 0c0,3 -2,5 -5,5 -3,0 -5,-2 -5,-5l10 0zm-10 29c0,-3 2,-5 5,-5 3,0 5,2 5,5l-10 0zm10 10l-10 0 0 -10 10 0 0 10zm0 0c0,3 -2,5 -5,5 -3,0 -5,-2 -5,-5l10 0zm-10 29c0,-3 2,-5 5,-5 3,0 5,2 5,5l-10 0zm10 10l-10 0 0 -10 10 0 0 10zm0 0c0,3 -2,5 -5,5 -3,0 -5,-2 -5,-5l10 0zm-10 29c0,-3 2,-5 5,-5 3,0 5,2 5,5l-10 0zm10 10l-10 0 0 -10 10 0 0 10zm0 0c0,3 -2,5 -5,5 -3,0 -5,-2 -5,-5l10 0zm-10 29c0,-3 2,-5 5,-5 3,0 5,2 5,5l-10 0zm10 10l-10 0 0 -10 10 0 0 10zm0 0c0,3 -2,5 -5,5 -3,0 -5,-2 -5,-5l10 0zm-10 29c0,-3 2,-5 5,-5 3,0 5,2 5,5l-10 0zm10 10l-10 0 0 -10 10 0 0 10zm0 0c0,3 -2,5 -5,5 -3,0 -5,-2 -5,-5l10 0zm-10 29c0,-3 2,-5 5,-5 3,0 5,2 5,5l-10 0zm10 10l-10 0 0 -10 10 0 0 10zm0 0c0,3 -2,5 -5,5 -3,0 -5,-2 -5,-5l10 0z"></path> </g> </g> <g transform="matrix(0.747436 0 0 1 306.913 5011.46)"> <text x="2000" y="-4695" class="fil1 fnt4">Plan: S/.105.90</text> </g> <g transform="matrix(0.747436 0 0 1 306.913 5011.46)"> <text x="2000" y="-4577" class="fil1 fnt4">Envío: Gratis. </text> </g> <g transform="matrix(0.747436 0 0 1 306.913 5011.46)"> <text x="2000" y="-4459" class="fil1 fnt4">Total: S/.105.90</text> </g> <text x="55" y="175" id="Bono_x0020_Línea_x0020_Nueva_2" class="fil4 fnt5">ilimitado 105.90</text> <text x="812" y="175" id="Bono_x0020_Línea_x0020_Nueva_2" class="fil5 fnt5"> - PORTABILIDAD</text> <g> <g> <g> <path class="fil6" d="M2882 521l0 -43 14 0 2 -17 -17 0 0 -9c0,-3 0,-4 0,-5 0,0 0,-1 1,-2 1,-2 4,-3 8,-3l8 0 0 -15c-4,-1 -8,-1 -13,-1 -9,0 -15,3 -19,10 -2,4 -3,8 -3,12l0 13 -14 0 0 17 14 0 0 43 17 0zm-7 42c-12,0 -23,-2 -34,-7 -11,-5 -20,-11 -29,-19 -9,-8 -15,-18 -19,-29 -4,-11 -7,-22 -7,-34 0,-12 2,-23 7,-34 5,-11 11,-20 19,-29 8,-8 18,-15 29,-19 11,-5 22,-7 34,-7 12,0 23,2 34,7 11,4 20,11 29,19 8,9 15,18 19,29 4,11 7,22 7,34 0,12 -2,23 -7,34 -5,11 -11,20 -19,29 -9,9 -18,15 -29,19 -11,4 -22,7 -34,7z"></path> <path class="fil7" d="M3100 563c-12,0 -23,-2 -34,-7 -11,-5 -20,-11 -29,-19 -8,-8 -15,-18 -19,-29 -5,-11 -7,-22 -7,-34 0,-12 2,-23 7,-34 4,-11 11,-20 19,-29 9,-8 18,-15 29,-19 11,-5 22,-7 34,-7 12,0 23,2 34,7 11,4 20,11 29,19 9,9 15,18 19,29 2,4 3,9 4,13l0 41c-1,5 -3,9 -4,13 -5,11 -11,20 -19,29 -8,9 -18,15 -29,19 -11,4 -22,7 -34,7zm0 -133c-4,0 -7,0 -9,0 -2,0 -4,0 -5,0 -1,0 -3,0 -4,0 -5,0 -8,1 -11,2 -3,1 -6,3 -8,5 -2,2 -4,5 -5,8 -1,3 -2,6 -2,11 0,2 0,3 0,4 0,1 0,3 0,5 0,2 0,5 0,9 0,4 0,7 0,9 0,2 0,4 0,5 0,1 0,3 0,4 0,5 1,8 2,11 1,3 3,6 5,8 2,2 5,4 8,5 3,1 6,2 11,2 2,0 3,0 4,0 1,0 3,0 5,0 2,0 5,0 9,0 4,0 7,0 9,0 2,0 4,0 5,0 1,0 3,0 4,0 5,0 8,-1 11,-2 3,-1 6,-3 8,-5 2,-2 4,-5 5,-8 1,-3 2,-6 2,-11 0,-2 0,-3 0,-4 0,-1 0,-3 0,-5 0,-2 0,-5 0,-9 0,-4 0,-7 0,-9 0,-2 0,-4 0,-5 0,-1 0,-3 0,-4 0,-5 -1,-8 -2,-11 -1,-3 -3,-6 -5,-8 -2,-2 -5,-4 -8,-5 -3,-1 -6,-2 -11,-2 -2,0 -3,0 -4,0 -1,0 -3,0 -5,0 -2,0 -5,0 -9,0zm-4 8c1,0 2,0 3,0 1,0 1,0 2,0 4,0 7,0 9,0 2,0 4,0 5,0 1,0 3,0 4,0 4,0 7,1 8,2 2,1 4,2 5,3 2,2 3,3 3,5 1,1 1,4 2,8 0,2 0,3 0,4 0,1 0,3 0,5 0,2 0,5 0,9 0,4 0,7 0,9 0,2 0,4 0,5 0,1 0,3 0,4 0,4 -1,7 -2,8 -1,2 -2,4 -3,5 -2,2 -3,3 -5,3 -1,1 -4,1 -8,2 -2,0 -3,0 -4,0 -1,0 -3,0 -5,0 -2,0 -5,0 -9,0 -4,0 -7,0 -9,0 -2,0 -4,0 -5,0 -1,0 -3,0 -4,0 -4,0 -7,-1 -8,-2 -2,-1 -4,-2 -5,-3 -2,-2 -3,-3 -3,-5 -1,-1 -1,-4 -2,-8 0,-2 0,-3 0,-4 0,-1 0,-3 0,-5 0,-2 0,-5 0,-9 0,-4 0,-7 0,-9 0,-2 0,-4 0,-5 0,-1 0,-3 0,-4 0,-4 1,-7 2,-8 1,-2 2,-4 3,-5 2,-2 3,-3 5,-3 1,-1 4,-1 8,-2 1,0 3,0 4,0 1,0 3,0 4,0 2,0 4,0 7,0zm28 8c-2,0 -3,1 -4,2 -1,1 -2,2 -2,4 0,2 1,3 2,4 1,1 2,2 4,2 2,0 3,-1 4,-2 1,-1 2,-2 2,-4 0,-2 -1,-3 -2,-4 -1,-1 -2,-2 -4,-2zm-24 6c-6,0 -12,2 -16,7 -4,5 -7,10 -7,16 0,6 2,12 7,16 5,4 10,7 16,7 6,0 12,-2 16,-7 5,-5 7,-10 7,-16 0,-6 -2,-12 -7,-16 -5,-5 -10,-7 -16,-7zm0 8c4,0 8,2 11,5 3,3 4,6 4,11 0,4 -1,8 -4,11 -3,3 -6,4 -11,4 -4,0 -8,-2 -11,-4 -3,-3 -4,-7 -4,-11 0,-4 2,-8 4,-11 3,-3 7,-5 11,-5z"></path> </g> <g transform="matrix(0.747436 0 0 1 1398.56 5327.25)"> <text x="2000" y="-4695" class="fil1 fnt4">Fotos</text> </g> </g> <g> <path class="fil8 str1" d="M3412 476c-10,0 -18,-3 -26,-9 -8,-6 -14,-15 -16,-26 -1,-3 -1,-5 -1,-8l-27 0 0 75 0 41c0,11 -7,20 -17,24 -3,1 -6,1 -9,1 -4,0 -8,-1 -11,-3 -7,-4 -12,-12 -12,-21 0,-14 11,-25 25,-25 3,0 5,0 8,1l0 -20 0 -7c-3,0 -5,-1 -8,-1 -15,0 -29,6 -40,18 -8,9 -12,20 -13,31 -1,15 5,29 15,40 2,2 3,3 5,4 9,7 20,11 32,11 3,0 5,0 8,-1 11,-2 21,-7 29,-15 10,-10 15,-23 15,-37l0 -61c5,4 10,7 15,9 9,4 18,6 27,6l0 -20 0 -7c0,0 0,0 0,0l0 0z"></path> <g transform="matrix(0.984016 0 0 1 1601.89 5153.66)"> <text x="1893" y="-4695" class="fil1 fnt6">30GB</text> </g> <g transform="matrix(0.984016 0 0 1 1601.89 5153.66)"> </g> <g transform="matrix(0.984016 0 0 1 1601.89 5153.66)"> </g> <g transform="matrix(0.984016 0 0 1 1601.89 5153.66)"> <text x="1891" y="-4602" class="fil9 fnt7">Extras</text> </g> <g transform="matrix(0.984016 0 0 1 1601.89 5153.66)"> <text x="1898" y="-4513" class="fil9 fnt7">TikTok</text> </g> </g> </g> </g> </svg> 