<svg xmlns="http://www.w3.org/2000/svg" xmlns:xlink="http://www.w3.org/1999/xlink" xml:space="preserve" width="176.315mm" height="44.698mm" style="shape-rendering:geometricPrecision; text-rendering:geometricPrecision; image-rendering:optimizeQuality; fill-rule:evenodd; clip-rule:evenodd" viewBox="0 0 66617 16888">
 <defs>
  <style type="text/css">
   <![CDATA[
    .fil0 {fill:#007688}
    .fil3 {fill:black;fill-rule:nonzero}
    .fil2 {fill:#007688;fill-rule:nonzero}
    .fil1 {fill:#FFF202;fill-rule:nonzero}
   ]]>
  </style>
 </defs>
 <g id="Capa_x0020_1">
  <metadata id="CorelCorpID_0Corel-Layer"></metadata>
  <g id="_2078349376304">
   <path class="fil0" d="M8179 6344c1011,-431 1645,946 772,1380 -1019,507 -1887,-905 -772,-1380z"></path>
   <path class="fil0" d="M1 11834c-48,-339 2145,-5180 3345,-3944 332,342 317,1657 372,2215 690,-313 1108,-1561 2310,-1320 389,192 1057,2277 969,2605 -18,66 -1067,1497 -1875,-794 -580,292 -811,1187 -1580,1244 -1056,78 -1141,-598 -1304,-1433 -17,14 -38,34 -49,44l-245 278c-504,698 -860,1914 -1943,1106z"></path>
   <path class="fil0" d="M7967 8299c218,-191 1421,-540 1467,1128 115,4081 -1471,2657 -1636,1374 -82,-639 -283,-2106 168,-2502z"></path>
  </g>
  <path class="fil0" d="M12992 0c-1267,563 -2126,5353 -2473,7086 -2508,12527 10297,10812 15302,7039 3907,-2945 5611,-10972 -222,-11770 -2076,-284 -5875,1095 -7860,1655 -1666,469 -2694,858 -3496,-588 -855,-1541 -393,-2903 -1251,-3421z"></path>
  <path class="fil1" d="M11284 6987c0,-64 21,-118 64,-159 42,-42 93,-62 156,-62l804 0c63,0 115,21 157,62 42,42 62,96 62,159l0 1103c387,-123 734,-184 1038,-184 588,0 1056,176 1403,527 347,351 521,855 521,1516 0,1358 -760,2037 -2280,2037 -347,0 -707,-39 -1080,-118 -371,-77 -653,-173 -846,-286l0 -4596zm1243 1933l0 2118c206,55 468,83 787,83 317,0 547,-93 688,-277 140,-184 210,-483 210,-895 0,-412 -69,-710 -206,-896 -138,-185 -371,-278 -699,-278 -211,0 -471,48 -779,145z"></path>
  <path id="1" class="fil1" d="M16153 7229l0 -123c0,-126 37,-227 110,-302 72,-75 174,-112 303,-112l446 0c126,0 227,37 301,110 74,72 110,174 110,303l0 123c0,126 -36,227 -109,302 -72,74 -174,112 -303,112l-446 0c-126,0 -227,-38 -302,-112 -74,-75 -112,-175 -112,-302zm15 4466l0 -3407c0,-65 21,-118 62,-158 43,-40 94,-61 157,-61l804 0c65,0 118,21 158,64 40,42 61,93 61,156l0 3407c0,65 -21,118 -64,158 -42,40 -93,61 -156,61l-804 0c-65,0 -118,-21 -158,-61 -40,-40 -61,-93 -61,-158z"></path>
  <path id="2" class="fil1" d="M20182 11135l491 -43 132 0c65,0 119,21 161,61 42,40 62,93 62,158l0 384c0,53 -21,101 -62,142 -42,42 -96,67 -161,77 -244,48 -563,72 -955,72 -1029,0 -1544,-539 -1544,-1617l0 -3383c0,-64 21,-118 64,-159 42,-42 93,-62 156,-62l804 0c63,0 115,21 157,62 42,42 62,96 62,159l0 1200 1001 0c63,0 115,21 157,61 42,40 63,93 63,158l0 426c0,65 -21,118 -63,158 -42,40 -94,61 -157,61l-1001 0 0 1317c0,244 58,433 173,566 114,132 267,199 460,199z"></path>
  <path id="3" class="fil1" d="M21913 11462c-369,-349 -553,-853 -553,-1510 0,-657 185,-1162 556,-1515 371,-353 885,-531 1544,-531 658,0 1172,173 1539,516 369,343 554,836 554,1477l0 205c0,65 -22,119 -64,161 -42,42 -94,62 -159,62l-2704 0c23,294 108,509 252,642 146,135 377,202 695,202 319,0 537,-72 654,-216 116,-143 261,-217 434,-219l536 0c64,0 118,21 159,62 42,43 62,96 62,161 0,686 -654,1029 -1963,1027 -661,0 -1175,-175 -1544,-525zm707 -1892l1669 0c-23,-565 -300,-847 -831,-847 -529,0 -810,282 -838,847z"></path>
  <path id="4" class="fil1" d="M26213 11695l0 -4707c0,-64 21,-118 64,-159 42,-42 93,-62 156,-62l804 0c63,0 115,21 157,62 42,42 62,96 62,159l0 4707c0,62 -21,115 -62,157 -42,42 -94,62 -157,62l-804 0c-63,0 -114,-21 -156,-62 -43,-42 -64,-94 -64,-157z"></path>
  <path class="fil2" d="M29860 11469c-374,-346 -560,-853 -560,-1525 0,-672 186,-1179 560,-1522 373,-343 909,-516 1610,-516 700,0 1237,173 1610,516 373,343 560,851 560,1522 0,672 -188,1179 -560,1525 -374,344 -911,517 -1610,517 -701,0 -1238,-173 -1610,-517zm908 -2456c-148,194 -223,504 -223,930 0,425 75,737 223,933 148,196 382,295 702,295 319,0 554,-99 703,-295 150,-196 224,-507 224,-933 0,-426 -75,-737 -224,-930 -150,-194 -385,-290 -703,-290 -320,0 -554,97 -702,290z"></path>
  <path id="1" class="fil2" d="M34301 11695l0 -3493c0,-65 21,-118 64,-161 42,-42 93,-62 156,-62l804 0c63,0 115,21 157,62 42,43 62,96 62,161l0 226c412,-347 851,-521 1316,-521 466,0 844,142 1136,426 292,283 438,717 438,1302l0 2060c0,62 -21,115 -62,157 -42,42 -94,62 -159,62l-802 0c-61,0 -114,-21 -156,-62 -42,-42 -62,-94 -62,-157l0 -2060c0,-572 -229,-859 -686,-859 -299,0 -620,172 -962,514l0 2406c0,62 -21,115 -62,157 -42,42 -94,62 -157,62l-804 0c-63,0 -114,-21 -156,-62 -43,-42 -64,-94 -64,-157z"></path>
  <path id="2" class="fil2" d="M39317 11695l0 -4707c0,-64 21,-118 64,-159 42,-42 93,-62 156,-62l804 0c63,0 115,21 157,62 42,42 62,96 62,159l0 4707c0,62 -21,115 -62,157 -42,42 -94,62 -157,62l-804 0c-63,0 -114,-21 -156,-62 -43,-42 -64,-94 -64,-157z"></path>
  <path id="3" class="fil2" d="M41442 7229l0 -123c0,-126 37,-227 110,-302 72,-75 174,-112 303,-112l446 0c126,0 227,37 301,110 74,72 110,174 110,303l0 123c0,126 -36,227 -109,302 -72,74 -174,112 -303,112l-446 0c-126,0 -227,-38 -302,-112 -74,-75 -112,-175 -112,-302zm15 4466l0 -3407c0,-65 21,-118 62,-158 43,-40 94,-61 157,-61l804 0c65,0 118,21 158,64 40,42 61,93 61,156l0 3407c0,65 -21,118 -64,158 -42,40 -93,61 -156,61l-804 0c-65,0 -118,-21 -158,-61 -40,-40 -61,-93 -61,-158z"></path>
  <path id="4" class="fil2" d="M43597 11695l0 -3493c0,-65 21,-118 64,-161 42,-42 93,-62 156,-62l804 0c63,0 115,21 157,62 42,43 62,96 62,161l0 226c412,-347 851,-521 1316,-521 466,0 844,142 1136,426 292,283 438,717 438,1302l0 2060c0,62 -21,115 -62,157 -42,42 -94,62 -159,62l-802 0c-61,0 -114,-21 -156,-62 -42,-42 -62,-94 -62,-157l0 -2060c0,-572 -229,-859 -686,-859 -299,0 -620,172 -962,514l0 2406c0,62 -21,115 -62,157 -42,42 -94,62 -157,62l-804 0c-63,0 -114,-21 -156,-62 -43,-42 -64,-94 -64,-157z"></path>
  <path id="5" class="fil2" d="M48944 11462c-369,-349 -553,-853 -553,-1510 0,-657 185,-1162 556,-1515 371,-353 885,-531 1544,-531 658,0 1172,173 1539,516 369,343 554,836 554,1477l0 205c0,65 -22,119 -64,161 -42,42 -94,62 -159,62l-2704 0c23,294 108,509 252,642 146,135 377,202 695,202 319,0 537,-72 654,-216 116,-143 261,-217 434,-219l536 0c64,0 118,21 159,62 42,43 62,96 62,161 0,686 -654,1029 -1963,1027 -661,0 -1175,-175 -1544,-525zm707 -1892l1669 0c-23,-565 -300,-847 -831,-847 -529,0 -810,282 -838,847z"></path>
  <path id="6" class="fil2" d="M54024 10751c324,0 485,163 485,488l0 227c0,151 -42,268 -124,355 -83,86 -203,129 -362,129l-441 0c-158,0 -278,-43 -362,-129 -82,-87 -124,-205 -124,-355l0 -227c0,-158 42,-278 126,-363 83,-83 203,-125 359,-125l441 0z"></path>
  <path id="7" class="fil2" d="M56505 11966c-487,0 -866,-125 -1137,-375 -271,-251 -406,-618 -406,-1103 0,-485 134,-853 403,-1104 269,-251 643,-377 1123,-377 480,0 849,76 1106,229 258,153 387,379 387,677 0,47 -15,85 -45,115 -30,29 -69,44 -116,44l-388 0c-118,0 -218,-64 -299,-190 -102,-163 -283,-245 -543,-245 -259,0 -441,67 -544,200 -103,132 -155,349 -155,650 0,299 53,517 160,650 107,133 292,201 557,201 265,0 448,-82 550,-245 82,-128 181,-193 299,-193l388 0c47,0 85,15 116,46 30,30 45,68 45,113 0,299 -129,524 -387,677 -258,153 -630,229 -1116,229z"></path>
  <path id="8" class="fil2" d="M58680 11591c-271,-251 -406,-618 -406,-1105 0,-487 135,-855 406,-1104 270,-249 659,-374 1168,-374 507,0 897,125 1168,374 270,249 406,617 406,1104 0,487 -136,855 -406,1105 -271,250 -660,375 -1168,375 -508,0 -897,-125 -1168,-375zm658 -1781c-108,140 -162,365 -162,674 0,308 54,534 162,676 108,142 277,214 509,214 231,0 402,-72 510,-214 108,-142 163,-368 163,-676 0,-309 -54,-534 -163,-674 -108,-140 -279,-211 -510,-211 -232,0 -402,70 -509,211z"></path>
  <path id="9" class="fil2" d="M61900 11755l0 -2533c0,-47 15,-85 46,-116 30,-30 68,-45 113,-45l583 0c47,0 85,15 115,45 29,31 44,69 44,116l0 164c125,-121 248,-214 369,-280 120,-65 266,-98 435,-98 404,0 711,167 920,500 323,-335 653,-502 993,-501 339,1 608,103 804,307 197,203 296,519 296,946l0 1494c0,47 -15,85 -44,115 -29,29 -68,44 -115,44l-580 0c-47,0 -85,-15 -116,-45 -31,-30 -46,-68 -46,-114l0 -1494c0,-417 -151,-625 -452,-623 -185,0 -374,133 -570,399 11,75 16,149 16,224l0 1494c0,47 -16,85 -46,115 -30,29 -68,44 -113,44l-580 0c-47,0 -86,-15 -116,-45 -30,-30 -45,-68 -45,-114l0 -1494c0,-417 -151,-625 -453,-623 -193,0 -378,124 -555,372l0 1744c0,47 -15,85 -45,115 -30,29 -68,44 -114,44l-583 0c-47,0 -85,-15 -115,-44 -29,-29 -44,-68 -44,-115z"></path>
  <path class="fil3" d="M29639 15601l0 -1404c0,-31 12,-57 35,-78 23,-21 51,-32 84,-32l698 0c361,0 624,65 788,196 164,131 247,335 247,614 0,278 -82,483 -247,613 -165,130 -427,195 -788,195l-698 0c-32,0 -60,-10 -84,-30 -23,-20 -35,-44 -35,-74zm470 -215l332 0c224,0 376,-37 457,-111 81,-74 121,-200 121,-378 0,-179 -40,-305 -121,-379 -81,-74 -233,-111 -457,-111l-332 0 0 979z"></path>
  <path id="1" class="fil3" d="M31720 14233l0 -39c0,-40 13,-71 38,-95 25,-24 60,-35 105,-35l155 0c44,0 79,12 105,35 26,23 38,55 38,95l0 39c0,40 -12,71 -38,95 -25,23 -60,35 -105,35l-155 0c-44,0 -79,-12 -105,-35 -26,-24 -39,-55 -39,-95zm5 1403l0 -1070c0,-20 7,-37 22,-50 15,-13 33,-19 55,-19l280 0c23,0 41,7 55,20 14,13 21,29 21,49l0 1070c0,20 -7,37 -22,50 -14,13 -32,19 -54,19l-280 0c-23,0 -41,-7 -55,-19 -14,-13 -21,-29 -21,-50z"></path>
  <path id="2" class="fil3" d="M32392 14810c0,-243 217,-365 650,-365 456,0 684,108 684,324 0,20 -7,36 -21,49 -14,13 -32,20 -55,20l-186 0c-60,0 -110,-23 -151,-68 -41,-45 -121,-68 -241,-68 -164,0 -247,36 -247,108 0,34 32,62 97,84 65,23 143,42 236,59 93,17 185,39 278,65 92,26 171,68 235,126 65,58 97,131 97,218 0,243 -229,365 -686,365 -458,0 -686,-108 -686,-323 0,-20 7,-37 22,-50 14,-13 33,-20 55,-20l186 0c60,0 110,23 151,68 41,45 121,69 241,69 190,0 286,-36 286,-109 0,-34 -32,-62 -97,-84 -65,-23 -144,-43 -237,-60 -93,-18 -186,-40 -278,-65 -92,-26 -170,-68 -235,-126 -65,-58 -97,-130 -97,-216z"></path>
  <path id="3" class="fil3" d="M34651 15460l171 -13 46 0c23,0 41,7 56,19 15,13 22,29 22,50l0 121c0,17 -7,32 -22,45 -14,13 -33,21 -56,24 -85,15 -196,23 -332,23 -358,0 -537,-169 -537,-508l0 -1063c0,-20 7,-37 22,-50 14,-13 32,-20 54,-20l280 0c22,0 40,7 55,20 15,13 22,30 22,50l0 377 348 0c22,0 40,7 55,19 15,13 22,29 22,50l0 134c0,20 -7,37 -22,50 -14,13 -33,19 -55,19l-348 0 0 414c0,77 20,136 60,178 40,42 93,62 160,62z"></path>
  <path id="4" class="fil3" d="M36096 14755l-192 -7c-112,0 -220,55 -322,167l0 721c0,20 -7,37 -22,50 -14,13 -33,19 -55,19l-280 0c-23,0 -41,-7 -55,-19 -14,-13 -21,-29 -21,-50l0 -1097c0,-20 7,-37 22,-50 14,-13 32,-20 54,-20l280 0c23,0 41,7 55,20 14,13 21,30 21,50l0 71c85,-55 167,-97 245,-124 78,-27 182,-40 309,-40 23,0 41,7 55,20 14,13 22,29 22,49l0 171c0,20 -7,37 -22,50 -15,13 -33,19 -55,19l-40 0z"></path>
  <path id="5" class="fil3" d="M36392 14233l0 -39c0,-40 13,-71 38,-95 25,-24 61,-35 105,-35l155 0c44,0 79,12 105,35 26,23 38,55 38,95l0 39c0,40 -12,71 -38,95 -25,23 -60,35 -105,35l-155 0c-44,0 -79,-12 -105,-35 -26,-24 -39,-55 -39,-95zm5 1403l0 -1070c0,-20 7,-37 22,-50 15,-13 33,-19 55,-19l280 0c23,0 41,7 55,20 14,13 21,29 21,49l0 1070c0,20 -7,37 -22,50 -14,13 -32,19 -54,19l-280 0c-23,0 -41,-7 -55,-19 -14,-13 -21,-29 -21,-50z"></path>
  <path id="6" class="fil3" d="M37141 14157c0,-20 7,-37 22,-50 14,-13 32,-20 54,-20l280 0c22,0 40,7 55,20 15,13 22,30 22,50l0 347c135,-39 255,-58 361,-58 205,0 367,55 488,166 121,110 181,269 181,476 0,427 -264,640 -793,640 -121,0 -246,-12 -375,-37 -129,-24 -227,-54 -294,-90l0 -1444zm432 607l0 665c72,17 163,26 274,26 110,0 190,-29 239,-87 49,-58 73,-152 73,-281 0,-129 -24,-223 -72,-281 -48,-58 -129,-87 -243,-87 -73,0 -164,15 -271,45z"></path>
  <path id="7" class="fil3" d="M38834 15185l0 -646c0,-20 7,-37 22,-50 14,-13 32,-20 54,-20l280 0c22,0 40,7 55,20 15,13 22,30 22,50l0 646c0,181 79,271 237,271 104,0 216,-54 336,-163l0 -755c0,-20 7,-37 22,-50 15,-13 33,-20 54,-20l279 0c23,0 41,7 55,20 14,13 22,30 22,50l0 1097c0,20 -7,36 -22,49 -15,13 -33,20 -55,20l-279 0c-21,0 -40,-7 -54,-20 -14,-13 -22,-30 -22,-49l0 -72c-143,109 -296,164 -458,164 -162,0 -294,-45 -395,-134 -101,-89 -153,-225 -153,-409z"></path>
  <path id="8" class="fil3" d="M40578 14233l0 -39c0,-40 13,-71 38,-95 25,-24 60,-35 105,-35l155 0c44,0 79,12 105,35 26,23 38,55 38,95l0 39c0,40 -12,71 -38,95 -25,23 -61,35 -105,35l-155 0c-44,0 -79,-12 -105,-35 -26,-24 -39,-55 -39,-95zm5 1403l0 -1070c0,-20 7,-37 22,-50 15,-13 33,-19 55,-19l280 0c23,0 41,7 55,20 14,13 21,29 21,49l0 1070c0,20 -7,37 -22,50 -14,13 -32,19 -54,19l-280 0c-23,0 -41,-7 -55,-19 -14,-13 -21,-29 -21,-50z"></path>
  <path id="9" class="fil3" d="M41861 15728c-174,0 -319,-55 -436,-166 -117,-111 -175,-269 -175,-476 0,-206 61,-365 182,-475 121,-110 284,-166 489,-166 106,0 226,19 361,58l0 -347c0,-20 7,-37 22,-50 15,-13 33,-20 54,-20l279 0c22,0 41,7 55,20 14,13 22,30 22,50l0 1479c0,20 -7,36 -22,49 -15,13 -33,20 -55,20l-240 0c-23,0 -41,-7 -55,-20 -14,-13 -21,-30 -21,-49l0 -35c-132,84 -285,127 -458,127zm149 -1009c-115,0 -196,29 -243,87 -48,59 -71,152 -71,281 0,129 22,222 67,281 45,59 112,88 203,88 90,0 195,-34 315,-102l0 -590c-107,-30 -198,-45 -271,-45z"></path>
  <path id="10" class="fil3" d="M43137 15565c-130,-109 -195,-268 -195,-479 0,-211 65,-370 195,-478 130,-108 316,-162 560,-162 243,0 430,54 560,162 130,108 195,267 195,478 0,211 -65,370 -195,479 -130,108 -317,162 -560,162 -244,0 -430,-54 -560,-162zm316 -772c-52,61 -78,158 -78,292 0,134 26,231 78,293 52,62 133,93 244,93 111,0 193,-31 245,-93 52,-62 78,-159 78,-293 0,-134 -26,-231 -78,-292 -52,-61 -134,-91 -245,-91 -111,0 -193,30 -244,91z"></path>
  <path id="11" class="fil3" d="M45628 14755l-192 -7c-112,0 -220,55 -322,167l0 721c0,20 -7,37 -22,50 -14,13 -33,19 -55,19l-280 0c-23,0 -41,-7 -55,-19 -14,-13 -21,-29 -21,-50l0 -1097c0,-20 7,-37 22,-50 14,-13 32,-20 54,-20l280 0c23,0 41,7 55,20 14,13 21,30 21,50l0 71c85,-55 167,-97 245,-124 78,-27 182,-40 309,-40 23,0 41,7 55,20 14,13 22,29 22,49l0 171c0,20 -7,37 -22,50 -15,13 -33,19 -55,19l-40 0z"></path>
  <path id="12" class="fil3" d="M48496 15537c-170,135 -420,203 -749,203 -329,0 -579,-67 -750,-203 -170,-135 -256,-349 -256,-641 0,-292 85,-506 256,-641 171,-134 421,-202 750,-202 329,0 579,67 749,202 170,135 256,348 256,641 0,293 -85,506 -256,641zm-341 -1044c-84,-90 -220,-135 -407,-135 -188,0 -324,45 -408,135 -85,90 -127,225 -127,404 0,179 42,313 127,403 84,90 220,135 408,135 188,0 323,-45 407,-135 84,-90 126,-224 126,-403 0,-179 -42,-313 -126,-404z"></path>
  <path id="13" class="fil3" d="M48982 15636l0 -1097c0,-20 7,-37 22,-50 14,-13 32,-20 54,-20l280 0c22,0 40,7 55,20 15,13 22,30 22,50l0 71c143,-109 296,-164 458,-164 162,0 294,45 395,134 101,89 152,225 152,409l0 647c0,20 -7,36 -22,49 -15,13 -33,20 -55,20l-279 0c-21,0 -40,-7 -54,-20 -14,-13 -22,-30 -22,-49l0 -647c0,-180 -80,-270 -239,-270 -104,0 -216,54 -335,161l0 756c0,20 -7,36 -22,49 -14,13 -33,20 -55,20l-280 0c-22,0 -40,-7 -54,-20 -15,-13 -22,-30 -22,-49z"></path>
  <path id="14" class="fil3" d="M50726 15636l0 -1479c0,-20 7,-37 22,-50 14,-13 32,-20 54,-20l280 0c22,0 40,7 55,20 15,13 22,30 22,50l0 1479c0,20 -7,36 -22,49 -14,13 -33,20 -55,20l-280 0c-22,0 -40,-7 -54,-20 -15,-13 -22,-30 -22,-49z"></path>
  <path id="15" class="fil3" d="M51465 14233l0 -39c0,-40 13,-71 38,-95 25,-24 60,-35 105,-35l155 0c44,0 79,12 105,35 26,23 38,55 38,95l0 39c0,40 -12,71 -38,95 -25,23 -60,35 -105,35l-155 0c-44,0 -79,-12 -105,-35 -26,-24 -39,-55 -39,-95zm5 1403l0 -1070c0,-20 7,-37 22,-50 15,-13 33,-19 55,-19l280 0c23,0 41,7 55,20 14,13 21,29 21,49l0 1070c0,20 -7,37 -22,50 -14,13 -32,19 -54,19l-280 0c-23,0 -41,-7 -55,-19 -14,-13 -21,-29 -21,-50z"></path>
  <path id="16" class="fil3" d="M52214 15636l0 -1097c0,-20 7,-37 22,-50 14,-13 32,-20 54,-20l280 0c22,0 40,7 55,20 15,13 22,30 22,50l0 71c143,-109 296,-164 458,-164 162,0 294,45 395,134 101,89 152,225 152,409l0 647c0,20 -7,36 -22,49 -15,13 -33,20 -55,20l-279 0c-21,0 -40,-7 -54,-20 -14,-13 -22,-30 -22,-49l0 -647c0,-180 -80,-270 -239,-270 -104,0 -216,54 -334,161l0 756c0,20 -7,36 -22,49 -14,13 -33,20 -55,20l-280 0c-22,0 -40,-7 -54,-20 -15,-13 -22,-30 -22,-49z"></path>
  <path id="17" class="fil3" d="M54073 15563c-128,-110 -192,-268 -192,-474 0,-206 64,-365 193,-476 129,-111 308,-167 537,-167 229,0 407,54 535,162 128,108 193,263 193,464l0 64c0,20 -8,37 -22,50 -15,13 -33,20 -55,20l-940 0c8,92 38,160 88,202 51,42 131,64 242,64 111,0 187,-23 228,-68 41,-45 91,-68 151,-69l186 0c22,0 41,7 55,20 15,13 22,30 22,50 0,216 -228,323 -683,323 -230,0 -409,-55 -537,-165zm246 -595l580 0c-8,-178 -104,-266 -289,-266 -184,0 -282,89 -291,266z"></path>
  <path id="18" class="fil3" d="M56488 16016l0 -1859c0,-20 7,-37 22,-50 14,-13 33,-20 56,-20l278 0c23,0 41,7 55,20 14,13 21,30 21,50l0 1859c0,20 -7,37 -21,50 -14,13 -32,20 -55,20l-278 0c-23,0 -41,-7 -56,-20 -15,-13 -22,-30 -22,-50z"></path>
  <path id="19" class="fil3" d="M58174 14194c0,-29 11,-55 35,-75 23,-21 51,-32 84,-32l1015 0c249,0 433,65 550,194 66,71 99,163 99,273 0,111 -56,208 -169,291 160,77 240,198 240,361 0,163 -64,287 -192,372 -128,85 -285,127 -470,127l-1074 0c-32,0 -60,-10 -84,-31 -23,-20 -35,-45 -35,-75l0 -1405zm470 1206l714 0c64,0 113,-17 147,-52 34,-35 51,-82 51,-142 0,-60 -17,-107 -51,-142 -34,-35 -83,-52 -147,-52l-714 0 0 388zm0 -685l668 0c52,0 95,-14 126,-42 32,-28 47,-68 47,-119 0,-51 -16,-90 -47,-119 -32,-29 -74,-43 -126,-43l-668 0 0 323z"></path>
  <path id="20" class="fil3" d="M60283 15601l0 -1407c0,-29 12,-55 35,-75 23,-21 51,-32 84,-32l232 0c34,0 63,10 86,32 23,21 34,46 34,75l0 1405c0,29 -11,54 -35,75 -24,21 -52,31 -84,31l-232 0c-32,0 -60,-10 -84,-30 -23,-20 -35,-44 -35,-74z"></path>
  <path id="21" class="fil3" d="M60959 14301l0 -106c0,-31 11,-56 34,-77 22,-20 51,-30 85,-30l1584 0c34,0 62,10 85,30 23,20 34,46 34,77l0 106c0,31 -11,56 -34,76 -23,20 -51,30 -85,30l-557 0 0 1194c0,30 -12,54 -34,74 -23,20 -51,30 -83,30l-236 0c-32,0 -60,-10 -83,-30 -23,-20 -34,-44 -34,-74l0 -1194 -557 0c-34,0 -63,-10 -85,-30 -23,-20 -34,-45 -34,-76z"></path>
  <path id="22" class="fil3" d="M62984 15597l0 -1405c0,-29 11,-54 35,-74 23,-20 51,-30 84,-30l1439 0c32,0 60,10 83,32 23,21 35,46 35,75l0 106c0,29 -12,54 -35,75 -23,21 -51,31 -83,31l-1087 0 0 328 937 0c32,0 60,10 83,31 23,21 34,46 34,75l0 106c0,29 -12,54 -34,75 -23,21 -51,31 -83,31l-937 0 0 333 1085 0c32,0 59,10 81,30 22,20 34,45 34,74l0 109c0,29 -12,54 -35,75 -23,21 -51,31 -84,31l-1433 0c-32,0 -60,-10 -84,-31 -23,-20 -35,-46 -35,-77z"></path>
  <path id="23" class="fil3" d="M64889 15601l0 -1404c0,-31 12,-57 35,-78 23,-21 51,-32 84,-32l235 0c32,0 60,10 83,32 23,21 34,47 34,78l0 1189 1087 0c32,0 60,10 83,32 23,21 35,46 35,75l0 106c0,29 -12,54 -35,75 -23,21 -51,31 -83,31l-1439 0c-32,0 -60,-10 -84,-30 -23,-20 -35,-44 -35,-74z"></path>
 </g>
</svg>